<?xml version="1.0" standalone="no"?><!DOCTYPE svg PUBLIC "-//W3C//DTD SVG 1.1//EN" "http://www.w3.org/Graphics/SVG/1.1/DTD/svg11.dtd"><svg t="1579597464023" class="icon" viewBox="0 0 1024 1024" version="1.1" xmlns="http://www.w3.org/2000/svg" p-id="5307" xmlns:xlink="http://www.w3.org/1999/xlink" width="200" height="200"><defs><style type="text/css"></style></defs><path d="M504.334 0.347L69.456 291.236h882.596L504.333 0.347z m59.271 531.057l-48.247 95.165c-4.687 9.193-8.315 16.958-11.193 22.955-2.659-5.996-5.986-13.351-10.084-21.186l-51.125-96.935h-42.201l70.203 130.822h-56.672v34.209h71.692V716.2h-71.692v32.079h71.692v59.92h37.815v-59.92h71.022V716.2h-71.022v-19.766h71.022v-34.209h-56.542l69.883-130.822h-44.551z m-59.141 321.914c-108.706 0-196.658-89.579-196.658-199.616 0-110.355 87.951-199.524 196.658-199.524 108.587 0 196.677 89.17 196.677 199.524 0 110.067-88.09 199.616-196.677 199.616z m0-426.293c-123.416 0-223.409 101.512-223.409 226.677 0 125.237 99.992 226.748 223.409 226.748 123.397 0 223.45-101.511 223.45-226.748 0-125.165-100.053-226.677-223.45-226.677zM317.81 904.803h109.506v-11.592c-42.451-13.461-79.925-37.785-109.506-69.903v81.495z m267.929 0h109.556v-96.625c-28.29 35.975-66.045 63.827-109.556 80.036v16.589zM53.568 306.385v84.613h33.997v513.804h109.426V390.998H317.81v86.812c29.58-31.779 67.054-56.442 109.506-69.464v-17.348H585.77v21.905c43.48 16.209 81.235 44.121 109.525 80.347V390.998h129.223v513.804h109.557V390.998h33.927v-84.613H53.567z m0 717.267h914.475v-103.28H53.568v103.28z m0 0z" p-id="5308"></path></svg>