<?xml version="1.0" standalone="no"?><!DOCTYPE svg PUBLIC "-//W3C//DTD SVG 1.1//EN" "http://www.w3.org/Graphics/SVG/1.1/DTD/svg11.dtd"><svg t="1579597452123" class="icon" viewBox="0 0 1024 1024" version="1.1" xmlns="http://www.w3.org/2000/svg" p-id="5037" xmlns:xlink="http://www.w3.org/1999/xlink" width="200" height="200"><defs><style type="text/css"></style></defs><path d="M985.31555555 850.11721482H739.67691852c-3.39816297 0-6.79632592 0.84954075-9.8304 2.54862221L508.48047408 976.3346963l-328.0440889-0.36408889c-0.9709037 0-1.94180741 0.12136297-2.9127111 0.24272592-0.24272592 0-20.87442963 2.42725925-36.77297778-10.55857778-13.1072-10.67994075-20.51034075-29.24847408-22.08805927-55.46287407-1.45635555-25.00077037 3.76225185-44.17611852 15.4130963-56.6765037 16.14127408-17.3549037 40.65659259-17.96171852 40.77795556-17.96171853h165.17499259c3.03407408 12.25765925 10.55857778 25.36485925 25.36485927 37.7438815 16.50536297 13.71401482 31.67573333 17.23354075 42.71976295 17.23354073 1.82044445 0 3.64088889-0.12136297 5.21860741-0.24272593 18.08308148-1.82044445 30.21937778-12.37902222 34.95253334-17.3549037L638.70293333 732.88059259c8.98085925-6.5536 10.92266667-19.17534815 4.2477037-28.15620741-6.5536-8.98085925-19.17534815-10.8013037-28.1562074-4.2477037L422.67685925 841.50044445c-1.21362963 0.84954075-2.54862222 2.18453333-3.51952592 3.2768-4.85451852 5.46133333-13.59265185 9.46631111-28.15620741-2.54862223-15.53445925-12.98583703-13.47128889-23.54441482-11.16539259-28.27757037l300.00924445-279.37754074H985.31555555c11.16539259 0 20.14625185-8.98085925 20.14625186-20.14625186 0-11.16539259-8.98085925-20.14625185-20.14625186-20.14625184h-112.74619258c2.54862222-18.44717037 4.36906667-37.0157037 4.36906666-56.06968889 0-236.29368889-192.23893333-428.53262222-428.53262222-428.53262222S19.87318518 201.91762963 19.87318518 438.21131852c0 118.08616297 48.05973333 225.24965925 125.61066667 302.92195556 3.64088889 3.64088889 8.61677037 5.82542222 14.19946667 5.82542222 11.16539259 0 20.14625185-8.98085925 20.14625185-20.14625185 0-5.94678518-2.66998518-11.04402963-6.67496296-14.80628148l0.12136296-0.12136297c-69.90506667-70.26915555-113.11028148-166.99543703-113.11028148-273.67348148 0-214.08426667 174.15585185-388.24011852 388.24011852-388.24011852s388.24011852 174.15585185 388.24011851 388.24011852c0 19.17534815-1.94180741 37.74388148-4.73315555 56.06968889h-160.19911112c-5.09724445 0-9.95176297 1.94180741-13.7140148 5.46133334L350.34453333 786.52302222c-1.09226667 0.9709037-1.94180741 2.06317037-2.79134815 3.15543703-1.09226667 1.57771852-2.18453333 3.51952592-3.15543703 5.5826963H174.73232592c-1.69908148 0-41.50613333 0.36408889-69.7837037 30.34074075-19.78216297 20.99579259-28.76302222 50.24426667-26.57848889 87.01724445 2.18453333 37.86524445 14.68491852 66.26417778 36.89434075 84.34725925 26.57848889 21.60260741 58.25422222 20.26761482 66.26417777 19.41807408l332.17042963 0.36408889c3.39816297 0 6.79632592-0.84954075 9.8304-2.54862222l221.36604444-123.66885927H985.31555555c11.16539259 0 20.14625185-8.98085925 20.14625186-20.14625185 0-11.28675555-8.98085925-20.26761482-20.14625186-20.26761481z" p-id="5038"></path><path d="M291.84758518 475.9552c-11.16539259 0-20.14625185 8.98085925-20.14625185 20.14625185s8.98085925 20.14625185 20.14625185 20.14625185h125.8533926V613.94488889c0 11.16539259 8.98085925 20.14625185 20.14625185 20.14625186s20.14625185-8.98085925 20.14625185-20.14625186v-97.69718519h125.8533926c11.16539259 0 20.14625185-8.98085925 20.14625184-20.14625185s-8.98085925-20.14625185-20.14625184-20.14625185H457.99348148v-62.86601482h125.8533926c11.16539259 0 20.14625185-8.98085925 20.14625184-20.14625185s-8.98085925-20.14625185-20.14625184-20.14625185h-85.43952593l61.40965926-120.75614815c5.09724445-9.95176297 1.09226667-21.9666963-8.8594963-27.06394074-9.95176297-4.97588148-22.08805925-1.09226667-27.06394074 8.8594963l-70.7546074 138.96059259h-36.40888889L344.51911111 233.71472592c-5.09724445-9.8304-17.23354075-13.71401482-27.1853037-8.61677037-9.8304 5.09724445-13.71401482 17.23354075-8.61677038 27.1853037l62.62328889 120.51342223h-79.49274074c-11.16539259 0-20.14625185 8.98085925-20.14625185 20.14625185s8.98085925 20.14625185 20.14625185 20.14625185h125.8533926v62.86601482H291.84758518z" p-id="5039"></path></svg>