<?xml version="1.0" standalone="no"?><!DOCTYPE svg PUBLIC "-//W3C//DTD SVG 1.1//EN" "http://www.w3.org/Graphics/SVG/1.1/DTD/svg11.dtd"><svg t="1579597471107" class="icon" viewBox="0 0 1027 1024" version="1.1" xmlns="http://www.w3.org/2000/svg" p-id="5441" xmlns:xlink="http://www.w3.org/1999/xlink" width="200.5859375" height="200"><defs><style type="text/css"></style></defs><path d="M484.431367 0h-290.663258a97.117029 97.117029 0 0 0-96.850772 96.895149v678.199475H48.43648C24.229334 775.094624 0 799.323958 0 823.553292v9.673984C4.836992 857.45661 24.229334 871.989773 48.43648 871.989773h415.559706a305.617993 305.617993 0 0 1-26.403761-96.895149H193.768109V96.895149h290.663258v480.970033A309.367771 309.367771 0 0 1 581.326515 482.279127V96.895149A97.183593 97.183593 0 0 0 484.431367 0z m242.160213 290.663258c-24.229334 0-48.414292 24.229334-48.414292 48.43648v103.884379a309.767156 309.767156 0 0 1 96.850772-5.391692v-98.492687c0.066564-24.184958-24.029642-48.43648-48.43648-48.43648z m-381.412321 108.987627c-32.705163 0-54.516002 21.810838-54.516001 54.516002s21.810838 54.493814 54.516001 54.493814 54.493814-21.810838 54.493814-54.493814-21.810838-54.516002-54.493814-54.516002z m0-181.653442c-32.705163 0-54.516002 21.78865-54.516001 54.493814s21.810838 54.493814 54.516001 54.493814 54.493814-21.78865 54.493814-54.493814-21.810838-54.493814-54.493814-54.493814z m0 363.329072c-32.705163 0-54.516002 21.78865-54.516001 54.493814s21.810838 54.493814 54.516001 54.493814 54.493814-21.78865 54.493814-54.493814S377.862235 581.326515 345.179259 581.326515z" p-id="5442"></path><path d="M744.342008 1024a282.875257 282.875257 0 1 1 282.897445-282.875257 283.208078 283.208078 0 0 1-282.897445 282.875257z m0-497.411367a214.53611 214.53611 0 1 0 214.536109 214.53611 214.780178 214.780178 0 0 0-214.536109-214.53611z" p-id="5443"></path><path d="M762.536196 629.407987v37.03183q-18.371693 136.522979-122.611081 211.451973a435.639878 435.639878 0 0 0-29.621026-33.282052 278.592967 278.592967 0 0 0 71.001712-71.223593q-15.842257-15.110052-34.946155-31.83983L670.056467 712.235921q17.306667 13.756582 31.240753 25.604993a260.26565 260.26565 0 0 0 20.590496-69.160105h-44.109813a396.233928 396.233928 0 0 1-54.64913 95.40855 413.318715 413.318715 0 0 0-20.43518-42.667591q41.78007-56.845745 58.642976-139.496176l41.180993 7.122359q-4.770428 20.967693-10.761197 40.360036z m72.776755 35.833676q39.938463 44.731078 66.564105 79.876926l-33.282053 26.958462q-24.406838-35.45648-48.813676-65.521267v169.849408h-41.536002V584.987541h41.536002v92.413165z" p-id="5444"></path></svg>