<?xml version="1.0" standalone="no"?><!DOCTYPE svg PUBLIC "-//W3C//DTD SVG 1.1//EN" "http://www.w3.org/Graphics/SVG/1.1/DTD/svg11.dtd"><svg t="1579587752340" class="icon" viewBox="0 0 1274 1024" version="1.1" xmlns="http://www.w3.org/2000/svg" p-id="3800" xmlns:xlink="http://www.w3.org/1999/xlink" width="248.828125" height="200"><defs><style type="text/css"></style></defs><path d="M326.924569 1023.93c-92.856878 0-193.300745-40.199947-254.789664-126.375833A368.823514 368.823514 0 0 1 0 683.417449c0.792999-75.191901 30.00896-137.134819 82.325891-174.50377A183.109759 183.109759 0 0 1 131.811826 484.000712a243.579679 243.579679 0 0 1 273.47564-326.58457 283.100627 283.100627 0 0 1 521.924312 35.216954h4.415994a246.523675 246.523675 0 0 1 246.071675 246.297675 194.999743 194.999743 0 0 1-0.905998 19.589975c92.403878 67.94491 123.657837 208.929725 73.945902 344.138546-29.102962 80.059894-98.51987 148.683804-185.487755 182.656759a306.767596 306.767596 0 0 1-252.752667-6.228992l25.479966-50.391933a251.166669 251.166669 0 0 0 206.776728 4.416994c72.246905-28.876962 129.546829-84.929888 153.553797-150.043802 41.898945-114.825849 13.361982-238.370686-65.905913-286.384623l-16.419978-9.624987 2.829996-18.797975A188.205752 188.205752 0 0 0 931.628772 249.254021a198.169739 198.169739 0 0 0-21.967971 1.357999l-24.799968 2.944996-5.888992-24.346968a226.479701 226.479701 0 0 0-430.992432-28.309963l-9.511987 24.459968-25.139967-7.58699a185.147756 185.147756 0 0 0-54.467928-8.153989 186.506754 186.506754 0 0 0-161.593787 280.26963l21.515972 37.256951-42.691944 5.208993a130.452828 130.452828 0 0 0-60.92292 22.64797c-37.142951 26.497965-57.979924 72.359905-58.545923 129.09383a312.089589 312.089589 0 0 0 61.602919 180.617762c79.267895 111.089854 243.693679 128.64183 327.038569 69.189909l32.839957 46.202939a261.924655 261.924655 0 0 1-151.176801 43.823942z" p-id="3801"></path><path d="M730.400037 835.612248c18.117976-89.799882 7.92699-252.299667-86.628886-320.243577 0 0-99.990868 120.260841-116.976846 274.380638-0.792999 6.794991-1.245998 13.362982-1.585997 19.816974-135.887821-89.572882-290.913616-24.345968-290.913617-24.345968S380.487498 936.170116 448.544409 986.900049c76.324899 51.297932 148.797804-53.902929 245.618676-10.077987 32.386957 14.607981 82.439891 36.802951 123.318837 14.154982 81.306893-45.29694 157.743792-172.239773 207.569727-218.893712-85.156888-6.794991-191.829747 14.720981-294.651612 63.527916z" p-id="3802"></path></svg>