<?xml version="1.0" standalone="no"?><!DOCTYPE svg PUBLIC "-//W3C//DTD SVG 1.1//EN" "http://www.w3.org/Graphics/SVG/1.1/DTD/svg11.dtd"><svg t="1579587765428" class="icon" viewBox="0 0 1024 1024" version="1.1" xmlns="http://www.w3.org/2000/svg" p-id="4208" xmlns:xlink="http://www.w3.org/1999/xlink" width="200" height="200"><defs><style type="text/css"></style></defs><path d="M159.936 292.416A192 192 0 0 0 128 398.4V896a64 64 0 0 0 64 64h640a64 64 0 0 0 64-64V398.4a192 192 0 0 0-31.936-105.984L797.632 192H226.368L160 292.416zM192 128h640l85.44 129.088A256 256 0 0 1 960 398.4V896a128 128 0 0 1-128 128H192a128 128 0 0 1-128-128V398.4a256 256 0 0 1 42.56-141.312L192 128z m64 0h512V64H256v64z m0-128h512a64 64 0 0 1 64 64v128H192V64a64 64 0 0 1 64-64z m256 704a128 128 0 1 0 0-256 128 128 0 0 0 0 256z m0 64a192 192 0 1 1 0-384 192 192 0 0 1 0 384z" p-id="4209"></path></svg>