<?xml version="1.0" standalone="no"?><!DOCTYPE svg PUBLIC "-//W3C//DTD SVG 1.1//EN" "http://www.w3.org/Graphics/SVG/1.1/DTD/svg11.dtd"><svg t="1579587776518" class="icon" viewBox="0 0 1024 1024" version="1.1" xmlns="http://www.w3.org/2000/svg" p-id="4615" xmlns:xlink="http://www.w3.org/1999/xlink" width="200" height="200"><defs><style type="text/css"></style></defs><path d="M825.9 440.9c12.5 22.3-22.1 80.4-60.1 94C784.2 670.2 629.7 738 612 743.1c-1.9 0.5-3.7 1-5.6 1.5 5.5 14.9 13.2 38.7 14.6 41.9 3.8 8.9 6.4 10.9 10.4 18.6 4.1 7.7 0.2 11.9 4.5 20.8s17.5 19.3 27.5 24.2c10.1 4.9 16.8 10.7 18.6 13.4 1.8 2.7 3.9 5.3 0.7 9.7-3.2-7.2-30.5-15.4-30.5-15.4s10.8 21.8 7.2 26.9c0.6 8.3-28.5 11.9-32.8 23.2-2.4 6.4-1.6 14.6-1.6 14.6s-9.7-7.4-14-16.2c-4.5-14.5 7.6-21.5 7.6-21.5s-12.1 2-20.8 5.7c-12.3 0.5-27.4 9.2-37.7 11.4-10.2 2.2-23.4 1.4-23.4 1.4s-9.7 3-8.7 13.6c-6.2-6.6-8.4-16.6-4.3-22.7 4.5-6.7 18.4-12.3 26.3-13.7 5.7-1 11.3-1.4 14.1-1 7.5 1.2 30.7-11.8 30.7-11.8s-15.7 2.5-29 7.7c-3-0.1-5.4 1.2-11.4-0.9-5 0.1-1.4 2.1-7.3 3.9 0 0-0.5-2.8 0.2-5.6 1.6-6 7.6-9.1 13.1-10.8 4.6-1.4 10.2-2.6 15.1-3.4 11.6-1.9 34.1-2.2 40.8-3.9 2.4-0.6-4.8-24.9-14.4-50.2-5.3-14-17.2-41.5-22.2-55.6-20 2-39.8 2.2-53.6 4.6-6.5 10.6-11.8 22.9-15.9 36.5-2.4 7.9-6.7 14.2-17.4 16.7-1.8 13.9-4 33.3-4.3 36.3-0.9 8.8 0.6 11.2 0.5 19 0 7.8-6.1 10.2-6.4 19-0.4 8.8 7.2 21.7 14.5 28.9 7.4 7.2 11 14.2 11.3 17 0.4 2.8 1 5.7-4.4 8.5 0.6-7.1-22.1-22.3-22.1-22.3s-0.8 21.8-7 25.1c-3.8 7.3-34.4 1.5-44.6 9.9-5.7 4.7-9.3 11.9-9.3 11.9s-5.8-9.2-5.4-18.1c3.2-13.7 18.8-16 18.8-16s-13-2-23.6-1.4c-12.4-3.3-31.9-0.4-43.2-1.6-11.3-1.2-23.9-5.9-23.9-5.9s-11.2-0.3-15.8 9c-2.7-7.5 0.3-16.7 7.6-20.6 8-4.4 24.7-4.9 33.2-3.8 6.2 0.8 11.9 2.2 14.5 3.4 6.8 3.3 36.5-0.8 36.5-0.8s-16.8-2.6-32.7-2.2c-2.9-1-5.9-0.6-10.8-4.2-5-1.4-2.5 1.3-9.3 1.1 0 0 1-2.6 3.2-4.7 4.7-4.6 12.3-5.5 18.6-5.2 5.3 0.2 11.4 0.8 16.7 1.6 12.5 1.9 34.9 8.4 42.4 9 2.7 0.2 8.3-22.7 12.1-47.1 1.9-12.3 2.8-31 4.5-43.5-19.8 3.3-33.2 9.5-40-29.9-7.6-44.2-32.3-61.7-60.4-83.3-34.9-12.4-65.5-31.5-90.5-53.4-75-65.7-77.9-123.4-62-217 12.1-71.5 31.3-150.7 29.8-190.3-3.3 5.8-9.9 8-21.6 10.6-18.3 4.1-20.6-20.1-27.7-27.2-7.1-7.1-5.2-19.3-5.2-19.3-15.3-3-24.5-5-37.4-0.8-1.8-2.9 4.8-28.8 26.8-32.4-18.9-4.7-10-41 0.1-50.7 7.5-7.2 17.9 7.5 12.8-11.8-3-11.3 11.3-13.2 14.9-13.8 3.5-0.6 4.1-1.7 8.3 4.9 4.1 6.5 4.4 5 3.2-6.8-0.9-8.6 14.8-23 19.4-9.2 2.3 7 3.2 3.2 4.9-1.5 3.2-8.9 14.5-18.6 22.6-8.2 3.1 4 22.2-9.1 25.3 11.3 1.6 10.8 0.2 28.6-2.9 37.3 2.7 0.9 5.2 2 7.7 3.1 8.6 4 14.2 9.1 24.2 12.2 29.6 9 73.9 67.4 78.7 116.7 8.6 43.9 19.6 72.5 38 88.3 48.2 29 166.9-10.5 222.8-0.5 46-25.9 85.1-132.9 93.9-149.5 4.9-9.2 14-19.9 23.8-25.3 30-16.5 39.5 36.6 29.1 58.5 9.6-8.3 23.3-16.6 36.5-13.9 12.6 14.4 8.2 40.2 2.4 52.6 9.6-3.8 20.3-5.8 29.1-1.1 7.4 16.4-0.9 53.4-14.3 70.8 9.8-6.8 16-12.1 15.9-13.5 13.2 24.9-30.8 120.4-82 131.4 15.8 0.5 31.2-2.1 35.3-6.4z" p-id="4616"></path></svg>