<?xml version="1.0" standalone="no"?><!DOCTYPE svg PUBLIC "-//W3C//DTD SVG 1.1//EN" "http://www.w3.org/Graphics/SVG/1.1/DTD/svg11.dtd"><svg t="1579587737857" class="icon" viewBox="0 0 1024 1024" version="1.1" xmlns="http://www.w3.org/2000/svg" p-id="3263" xmlns:xlink="http://www.w3.org/1999/xlink" width="200" height="200"><defs><style type="text/css"></style></defs><path d="M765.44 284.672c-54.784 26.112-72.192 57.344-77.824 72.704 13.824 3.072 39.424 6.656 75.264-5.632l30.208-9.728-7.168 30.208c-5.632 24.576-1.536 46.592 1.536 60.416 13.312-4.096 33.792-13.824 54.272-38.4l23.04-26.112 8.192 33.792c7.168 29.696 24.576 50.176 35.84 61.44 13.312-14.848 33.792-46.592 23.552-97.28-3.072-18.944-9.216-34.304-15.36-47.616s-15.36-23.552-25.6-31.232l-9.216-7.168 3.072-10.752c7.168-21.504 13.312-44.032 17.408-66.56 2.56-15.36 5.12-29.696 5.632-41.984l-31.232-2.56c1.536 9.728 2.56 21.504 3.072 32.768 1.024 20.48 1.024 43.52-2.56 64.512l-2.56 18.944-19.456-4.096c-13.312-3.072-27.648-3.072-42.496-1.024-13.824 1.536-31.232 7.168-47.616 15.36zM503.296 179.712c42.496 26.112 76.288 62.976 97.28 105.472-9.728 15.36-17.92 32.768-22.016 50.176l-98.304 36.864c-96.768 35.84-173.568 76.288-254.976 139.264-27.136 21.504-51.712 44.032-72.192 68.608-62.464-46.592-102.4-116.224-102.4-194.048 0-104.96 72.704-195.072 176.128-233.472 9.728 9.728 21.504 18.944 31.744 26.112 1.024 0 1.024 1.024 1.536 1.024-11.264 13.312-22.016 27.136-30.208 39.424l-24.576 35.328 43.52 8.192c25.6 5.12 57.344 4.096 82.944-1.536 9.728-2.56 19.456-6.656 28.672-12.288 18.944 20.48 51.712 41.984 74.752 56.32l36.864 23.04 6.656-41.984c4.096-24.576 1.536-55.808-5.12-79.36-1.024-2.56-1.536-5.12-2.56-6.656 11.264-6.656 22.528-13.824 32.256-20.48z m-75.264 8.192c29.696-9.216 78.848-43.52 78.848-43.52s-29.696-17.408-67.072-21.504c-13.824-1.536-29.696 4.096-43.52 11.264 0-15.36 4.096-30.208 16.384-49.152l-34.304-19.456c-17.408 27.648-22.016 46.592-22.016 68.096-9.728-13.312-23.04-26.112-37.888-29.696-31.232-5.12-90.112 3.072-90.112 3.072s17.92 28.672 49.152 49.152c11.264 7.168 27.136 9.728 43.52 9.216-1.536 1.024-4.096 1.536-5.632 3.072C290.304 187.904 256 235.52 256 235.52s34.304 6.656 70.656-1.536c17.408-4.096 32.768-18.944 44.032-33.792 1.024 9.728 3.072 19.456 9.728 27.136 20.48 23.04 71.168 54.272 71.168 54.272s5.632-33.792-4.096-68.096c-4.608-10.24-11.264-18.432-19.456-25.6z m-290.816 322.56c2.56-91.136 13.312-163.84 43.52-217.088L138.24 267.264c-53.248 45.056-50.176 122.88-1.024 243.2z m136.192 57.344c145.92-113.152 246.784-125.44 383.488-185.344l-7.168-4.096 1.024-10.752s1.536-66.56 99.84-113.664c20.48-9.728 39.936-16.384 59.904-19.456 12.288-2.56 24.576-2.56 36.864-1.536 1.024-13.824 1.024-27.648 1.024-40.96-1.024-19.456-4.096-36.864-7.168-48.128l-8.192-24.576 26.112 1.536 71.168 5.632 16.384 1.024v15.36c0 16.384-2.56 39.424-6.656 64-4.096 19.456-9.216 39.936-14.848 59.904 9.728 9.728 17.92 20.48 25.6 34.304 8.192 16.384 14.848 35.328 19.456 56.32 17.92 95.232-47.616 141.824-48.128 141.824l-10.752 7.168-10.752-7.168s-1.536-1.024-3.072-2.56C834.56 695.808 650.24 872.96 435.2 940.544c-112.128 35.328-179.2 19.456-241.664-73.728-49.152-69.12-71.68-181.76 79.872-299.008zM261.12 870.4c-16.384-35.328-15.36-69.632-3.072-103.424l-50.688-24.576c-7.168 40.448 7.68 82.944 53.76 128z m29.184-164.864c68.608-93.184 204.8-177.664 282.624-250.88-88.576 41.984-271.36 120.32-340.992 222.72l58.368 28.16" p-id="3264"></path></svg>