<?xml version="1.0" standalone="no"?><!DOCTYPE svg PUBLIC "-//W3C//DTD SVG 1.1//EN" "http://www.w3.org/Graphics/SVG/1.1/DTD/svg11.dtd"><svg t="1579587744088" class="icon" viewBox="0 0 1024 1024" version="1.1" xmlns="http://www.w3.org/2000/svg" p-id="3397" xmlns:xlink="http://www.w3.org/1999/xlink" width="200" height="200"><defs><style type="text/css"></style></defs><path d="M500.622222 207.644444c28.444444-42.666667 59.733333-79.644444 99.555556-110.933333 11.377778-8.533333 31.288889-8.533333 39.822222 5.688889 11.377778 11.377778 8.533333 31.288889-5.688889 39.822222-25.6 19.911111-51.2 45.511111-71.111111 71.111111l-5.688889 5.688889c-5.688889 5.688889-2.844444 14.222222 2.844445 19.911111 2.844444 2.844444 8.533333 2.844444 11.377777 2.844445 36.977778-8.533333 62.577778-14.222222 82.488889-14.222222 142.222222 0 256 113.777778 256 256 0 11.377778 0 19.911111-2.844444 31.288888-11.377778 150.755556-85.333333 287.288889-196.266667 381.155556-28.444444 25.6-68.266667 42.666667-113.777778 42.666667-14.222222 0-31.288889-2.844444-45.511111-5.688889-2.844444 0-8.533333-2.844444-11.377778-2.844445-2.844444 0-5.688889-2.844444-5.688888-2.844444-14.222222-5.688889-31.288889-5.688889-45.511112 0-2.844444 0-2.844444 2.844444-5.688888 2.844444-17.066667 5.688889-36.977778 8.533333-56.888889 8.533334-45.511111 0-85.333333-17.066667-116.622223-45.511111C199.111111 799.288889 128 665.6 113.777778 512v-28.444444c0-142.222222 113.777778-256 256-256 19.911111 0 48.355556 5.688889 82.488889 17.066666 11.377778 2.844444 25.6-2.844444 34.133333-14.222222 5.688889-8.533333 8.533333-17.066667 14.222222-22.755556z m-54.044444-2.844444c-17.066667 17.066667-62.577778 0-99.555556-39.822222s-56.888889-82.488889-39.822222-99.555556c17.066667-17.066667 62.577778 0 99.555556 39.822222s56.888889 82.488889 39.822222 99.555556z" p-id="3398"></path></svg>