<?xml version="1.0" standalone="no"?><!DOCTYPE svg PUBLIC "-//W3C//DTD SVG 1.1//EN" "http://www.w3.org/Graphics/SVG/1.1/DTD/svg11.dtd"><svg t="1579587757583" class="icon" viewBox="0 0 1253 1024" version="1.1" xmlns="http://www.w3.org/2000/svg" p-id="3935" xmlns:xlink="http://www.w3.org/1999/xlink" width="244.7265625" height="200"><defs><style type="text/css"></style></defs><path d="M1208.91278969 778.58717198c-60.15431342-60.93991125-94.66448438-149.99298562-94.66448438-244.37689969s34.51017093-183.32476031 94.66448438-244.26467156a22.44563906 22.44563906 0 0 0 4.54524187-21.9406125 16.27308844 16.27308844 0 0 0-16.04863219-12.00841781 307.95417375 307.95417375 0 0 0-164.97545062 61.2204825 279.89712375 279.89712375 0 0 0-86.3595975 106.95347156 444.81646031 444.81646031 0 0 0-161.49637594-143.3154075c-6.67757813-3.59130188-13.5234975-6.95814844-20.31330374-10.26888095 59.08814625-64.64344125 160.09352344-114.19219125 160.09352343-114.19219029S700.79962562 31.65240417 614.15945781 39.00335104c-60.43488469 5.21861156-149.20738875 117.83960719-197.07271501 185.17652625a573.09328969 573.09328969 0 0 0-64.19452874 14.81412188 524.04956719 524.04956719 0 0 0-140.90250187 64.41898499 442.01075531 442.01075531 0 0 0-107.402385 98.64858563A364.74164156 364.74164156 0 0 0 40.84171188 527.86937853a23.45569312 23.45569312 0 0 0 0 12.17676001 365.47112437 365.47112437 0 0 0 63.74561531 125.75169469 442.01075531 442.01075531 0 0 0 107.51461313 98.5363575 494.14075313 494.14075313 0 0 0 59.36871655 33.66845906c108.69300939-68.17863 182.37082031-196.39934531 190.78793531-360.86976844 12.56955844 150.16132782-28.05704906 290.78325938-113.63104968 390.55412625 1.34673845 0.39279844 2.805705 0.95394 4.26467155 1.34673844a583.58662594 583.58662594 0 0 0 81.98269782 17.50759874c18.96656531 44.3862525 42.75894281 109.47860625 40.90717874 152.12532189 0 0 69.41314031-63.52116 104.03553845-62.45499188 24.57797531 0.78559781-12.56955843-53.47673626-35.9691375-84.78840281a587.402385 587.402385 0 0 0 134.11269657-21.37947188c25.41968625 42.75894281 82.207155 126.08838 139.33130624 126.08838 0 0 73.50946969-117.11012437 119.13023156-117.11012437 0 0-70.59153656-40.79494969-92.36380593-89.3336447a422.93196188 422.93196188 0 0 0 101.73486094-105.60673405 279.6726675 279.6726675 0 0 0 86.52793968 107.06570062 307.61748844 307.61748844 0 0 0 165.14379283 61.72550813 16.3292025 16.3292025 0 0 0 16.04863217-12.00841688 21.88449844 21.88449844 0 0 0-4.60135593-22.27729687zM291.11059187 478.15228729A62.39887781 62.39887781 0 1 1 353.50946969 415.75340948a62.39887781 62.39887781 0 0 1-62.39887782 62.39887781z" p-id="3936"></path></svg>