<?xml version="1.0" standalone="no"?><!DOCTYPE svg PUBLIC "-//W3C//DTD SVG 1.1//EN" "http://www.w3.org/Graphics/SVG/1.1/DTD/svg11.dtd"><svg t="1583286010171" class="icon" viewBox="0 0 1024 1024" version="1.1" xmlns="http://www.w3.org/2000/svg" p-id="4240" xmlns:xlink="http://www.w3.org/1999/xlink" width="200" height="200"><defs><style type="text/css"></style></defs><path d="M416.233 831.265c0-20.769-16.836-37.604-37.6-37.604H94.66c-20.765 0-37.602 16.835-37.602 37.604a37.397 37.397 0 0 0 4.619 18.055H7.672v77.961h457.947V849.32h-54.004a37.425 37.425 0 0 0 4.618-18.055z m-48.322-642.91l239.937 152.36c18.66 9.51 41.839 3.437 53.29-14.6l11.513-18.124c12.163-19.157 6.494-44.544-12.658-56.71L426.676 103.125c-19.153-12.163-44.54-6.496-56.705 12.66l-11.514 18.128c-11.448 18.034-7.09 41.597 9.454 54.442z m648.31 582.06l-0.167-3.63-0.297-3.422c-0.156-2.34-0.484-4.423-0.768-6.564a105.562 105.562 0 0 0-5.518-22.417c-4.868-13.078-11.75-22.98-20.205-30.402-2.103-1.87-4.354-3.509-6.59-5.178l-6.698-5.003c-4.448-3.365-8.984-6.59-13.49-9.863a836.256 836.256 0 0 0-13.607-9.685 847.272 847.272 0 0 0-13.703-9.525c-9.15-6.327-18.399-12.495-27.668-18.643l-13.95-9.143-14.028-9.021c-9.38-5.962-18.774-11.907-28.232-17.75a2133.068 2133.068 0 0 0-28.459-17.4l-28.629-17.13-28.82-16.832-28.978-16.58-29.12-16.358-29.26-16.142-29.396-15.92c-9.834-5.255-19.658-10.52-29.558-15.673-9.876-5.18-19.743-10.385-29.692-15.458l-9.007 14.189-45.404-21.4 50.751-79.925-239.935-152.361-124.814 196.555 239.938 152.36 50.751-79.925 38.68 31.994-9.01 14.189c8.824 6.846 17.73 13.557 26.62 20.297 8.87 6.767 17.815 13.419 26.753 20.085l26.908 19.837 27.056 19.614 27.19 19.402 27.33 19.172 27.488 18.927 27.677 18.627a2127.626 2127.626 0 0 0 27.857 18.358c9.31 6.075 18.684 12.047 28.072 18.006l14.127 8.856 14.205 8.737c9.507 5.77 19.024 11.52 28.641 17.115a861.72 861.72 0 0 0 14.449 8.351 828.359 828.359 0 0 0 14.553 8.192c4.88 2.687 9.728 5.422 14.662 8.012l7.379 3.936c2.46 1.311 4.9 2.655 7.489 3.763 10.314 4.493 22.202 6.512 36.106 5.353a105.314 105.314 0 0 0 22.639-4.538c2.058-0.65 4.08-1.241 6.267-2.095l3.223-1.188 3.357-1.393c4.475-1.864 9.263-4.225 14.457-7.213 0.495-5.968 0.594-11.305 0.379-16.15z m-869.496-226.42L380.037 692.15c19.157 12.163 44.544 6.497 56.707-12.658l11.512-18.127c11.452-18.039 7.09-41.597-9.452-54.442L198.87 454.56c-18.66-9.507-41.84-3.437-53.293 14.602l-11.51 18.125c-12.167 19.157-6.498 44.546 12.659 56.709z" p-id="4241"></path></svg>