<?xml version="1.0" standalone="no"?><!DOCTYPE svg PUBLIC "-//W3C//DTD SVG 1.1//EN" "http://www.w3.org/Graphics/SVG/1.1/DTD/svg11.dtd"><svg t="1579587760370" class="icon" viewBox="0 0 1024 1024" version="1.1" xmlns="http://www.w3.org/2000/svg" p-id="4069" xmlns:xlink="http://www.w3.org/1999/xlink" width="200" height="200"><defs><style type="text/css"></style></defs><path d="M190.464 1008.128c-5.632 0-10.752-1.536-14.848-4.608-13.312-9.728-14.336-31.232-1.536-48.128 4.608-6.656 114.688-153.6 230.912-304.64 225.792-294.4 234.496-294.4 238.592-294.4h1.024l1.024 0.512c1.024 0.512 1.536 1.536 1.536 2.56 3.584 23.04-420.352 625.152-424.96 631.296-8.704 10.24-20.48 17.408-31.744 17.408zM249.344 901.12c-30.208 40.448-50.688 67.072-52.736 70.656-2.048 2.56-2.56 4.608-3.072 6.656 1.536-1.024 3.584-2.56 5.12-5.12 2.56-3.072 21.504-30.72 50.688-72.192z m501.248-508.928c-5.12 0-9.728-1.536-13.312-4.096-4.608-3.584-8.192-8.704-9.216-15.872-1.536-9.728 1.536-21.504 8.704-31.232 1.536-2.048 171.008-219.648 190.464-219.648 1.024 0 2.048 0.512 2.56 1.024 0.512 0.512 1.536 1.536 1.536 3.072 3.072 20.48-143.36 239.104-150.016 248.32-7.68 11.264-19.456 18.432-30.72 18.432z m74.752-125.44c-34.816 42.496-65.024 81.408-69.632 87.552-5.12 6.656-5.12 12.8-4.608 14.848 2.56-0.512 7.68-2.048 12.8-9.216 3.584-5.12 30.72-45.568 61.44-93.184z m-150.016 70.656c-5.12 0-9.728-1.536-13.312-4.096-4.608-3.584-8.192-8.704-9.216-15.872-1.536-9.728 1.536-21.504 8.704-31.232 1.536-2.048 171.008-219.648 190.976-219.648 1.024 0 2.048 0.512 2.56 1.024 0.512 0.512 1.536 1.536 1.536 3.072 3.072 20.48-143.36 239.104-150.016 248.32-8.192 11.264-20.48 18.432-31.232 18.432z m74.752-125.44c-36.352 44.544-66.048 82.944-69.632 87.552-5.12 6.656-5.12 12.8-4.608 14.848 2.56-0.512 7.68-2.048 12.8-9.216 3.584-5.12 30.72-45.568 61.44-93.184z m-150.016 70.656c-5.12 0-9.728-1.536-13.312-4.096-5.12-3.584-8.192-8.704-9.216-15.872-1.536-9.728 2.048-21.504 9.216-31.232 1.536-2.048 171.008-219.648 190.464-219.648 1.024 0 2.048 0.512 2.56 1.024 0.512 0.512 1.536 1.536 1.536 3.072 3.072 20.48-143.36 239.104-150.016 248.32-8.192 11.264-19.968 18.432-31.232 18.432z m74.752-125.44c-35.84 44.544-66.048 82.944-69.632 87.552-5.12 6.656-5.12 12.8-4.608 14.848 2.56-0.512 7.68-2.048 12.8-9.216 3.584-5.12 30.72-45.056 61.44-93.184z" p-id="4070"></path><path d="M692.224 607.232c-24.576 0-47.104-7.168-65.536-20.48-24.576-17.92-40.96-44.032-45.568-72.192-4.096-24.576 1.536-48.128 15.36-67.072 13.312-18.432 32.768-27.136 59.904-27.136 18.432 0 36.864 4.096 55.296 7.68 9.216 2.048 17.408 3.584 25.6 4.608 10.752 1.536 21.504 2.56 32.256 2.56 78.336 0 131.584-44.032 157.184-65.024 10.24-8.704 14.848-11.776 17.92-11.776h1.024l1.024 0.512 1.024 1.024v1.536c0.512 7.68-59.904 128-134.656 194.048-39.424 33.792-80.896 51.712-120.832 51.712z m-36.352-147.456h-4.608c-14.336 1.024-19.968 5.632-23.552 10.752-8.192 11.264-10.752 26.112-7.68 40.96 3.584 16.896 13.824 32.256 29.184 43.008 11.776 8.704 26.112 12.8 41.984 12.8 4.096 0 8.704-0.512 12.8-1.024 26.624-3.584 54.784-17.92 81.408-41.472 17.92-15.872 36.864-36.864 55.296-61.44-23.552 7.168-47.616 10.752-72.192 10.752-12.8 0-25.6-1.024-38.4-3.072-8.192-1.024-16.896-3.072-25.6-4.608l-2.56-0.512c-14.848-3.072-31.744-6.144-46.08-6.144z" p-id="4071"></path><path d="M591.872 808.448c-30.208 0-58.88-9.216-82.432-26.112-54.272-39.424-73.216-105.984-42.496-148.48 17.408-24.064 38.912-35.328 66.048-35.328 20.992 0 41.984 6.656 61.952 12.8 11.264 3.584 22.016 6.656 32.256 8.704 20.48 4.096 40.96 6.144 60.416 6.144 71.68 0 116.736-27.648 140.8-42.496 9.216-5.632 14.336-8.704 17.92-8.704h0.512v2.56l1.536-2.048 1.024 1.024v1.536c0.512 7.168-60.416 117.248-139.264 182.784-36.352 31.232-77.312 47.616-118.272 47.616z m-60.416-170.496c-9.216 0.512-19.968 2.56-32.256 18.944-17.408 24.576-2.048 67.072 33.792 93.184 16.896 12.288 36.864 18.432 58.88 18.432h7.68c28.672-2.048 58.368-14.848 86.016-37.888 22.016-18.432 44.544-42.496 67.584-71.68-20.992 4.608-42.496 7.168-64.512 7.168-22.016 0-45.056-2.56-68.608-7.168-11.776-2.56-24.064-6.144-35.84-9.728-16.896-5.12-35.84-11.264-50.688-11.264h-2.048z" p-id="4072"></path><path d="M454.144 1008.128c-30.208 0-58.88-9.216-82.432-26.112-54.272-39.424-73.216-105.984-42.496-148.48 21.504-29.184 43.52-43.52 68.608-43.52 19.456 0 37.376 8.192 55.296 16.384 12.8 5.632 24.576 11.264 36.352 13.824 26.112 5.12 52.224 8.192 77.824 8.192 66.048 0 112.64-17.92 137.216-27.648 9.216-3.584 14.848-5.632 18.432-5.632H724.48l2.048 1.536v1.536c0 6.144-76.288 98.816-154.112 163.328-36.864 30.72-77.824 46.592-118.272 46.592z m-57.856-178.176c-4.096 0-15.872 1.024-34.816 27.136-17.408 24.576-2.048 67.072 33.792 93.184 16.896 12.288 36.864 18.432 58.88 18.432h7.68c28.672-2.048 58.368-14.848 86.016-37.888 22.016-18.432 46.08-40.96 70.656-66.56-16.896 2.048-33.792 3.072-51.2 3.072-28.16 0-56.832-3.072-85.504-8.704-16.384-3.584-31.744-10.24-45.056-16.384-14.336-6.656-28.16-12.8-38.912-12.8-0.512 0.512-1.024 0.512-1.536 0.512zM498.688 467.968c-23.552 0-47.104-7.68-67.072-22.528-37.888-27.648-67.584-92.672-27.136-186.368 39.936-92.672 136.704-188.416 143.36-188.416h1.024l1.536 1.024 0.512 1.024c1.024 3.584-0.512 8.704-5.632 20.992-14.336 36.352-44.544 112.128-1.024 199.168 3.584 7.168 8.192 14.848 12.8 23.04 20.992 36.352 44.544 77.312 16.896 115.2-16.896 23.552-44.544 36.864-75.264 36.864z m-16.384-265.216c-17.92 25.088-31.744 49.152-41.472 71.68-14.336 32.768-18.944 64-14.336 90.112 4.096 20.992 13.824 37.888 28.672 48.64 13.312 9.728 28.16 14.848 43.52 14.848 2.048 0 4.096 0 6.656-0.512 15.36-1.536 28.672-8.704 36.864-19.968 3.584-4.608 7.168-11.264 3.072-25.6-3.584-14.336-13.312-30.72-22.528-46.592-4.608-7.68-9.216-16.384-13.824-25.088-16.896-34.304-26.112-70.144-26.624-107.52z" p-id="4073"></path><path d="M363.52 644.608c-27.648 0-56.832-9.728-81.92-28.16-43.52-31.232-80.384-101.888-41.984-197.632 36.864-93.184 123.904-189.44 131.584-189.44h1.024l1.536 1.024 0.512 1.024c1.536 3.584 0 9.216-2.56 20.48C363.52 286.72 345.6 359.936 399.36 454.656c5.12 8.704 11.264 17.92 18.432 27.648 26.112 36.352 55.296 77.824 18.432 129.024-15.36 21.504-41.984 33.28-72.704 33.28z m-39.936-297.472c-20.992 30.72-36.864 59.904-47.616 86.528-13.312 33.28-16.384 65.536-9.216 93.696 6.144 24.064 18.944 44.032 37.888 57.344 17.92 12.8 39.424 20.48 58.88 20.48 17.92 0 32.256-6.144 39.936-17.408 11.776-15.872 10.752-27.136 8.192-36.352-4.096-14.848-16.384-31.744-27.136-46.592-7.68-10.24-14.848-20.48-20.48-31.232-22.528-40.96-36.352-83.456-40.448-126.464z" p-id="4074"></path><path d="M216.576 838.144c-27.648 0-56.832-10.24-81.92-28.16-43.008-31.232-80.384-101.888-42.496-197.632 34.816-87.552 101.376-197.12 108.032-197.12h1.024l1.536 1.024 0.512 0.512c1.536 3.072 1.024 9.216 0.512 19.968-2.048 34.304-6.144 114.688 48.128 210.432 6.144 10.752 14.848 20.48 24.064 30.208 27.136 29.696 58.368 63.488 12.288 125.952-14.848 22.528-40.96 34.816-71.68 34.816z m-46.592-299.008c-16.384 31.232-30.208 60.928-40.96 88.064-13.312 33.28-16.384 65.536-9.216 93.696 6.144 24.064 18.944 44.032 37.888 57.856 17.92 12.8 39.424 20.48 58.88 20.48 17.92 0 32.256-6.144 39.936-17.408 12.8-17.408 17.92-31.744 14.848-41.984-2.56-10.24-13.312-21.504-24.064-33.792l-0.512-0.512c-10.752-11.776-21.504-23.04-29.696-37.888-22.528-41.472-38.912-84.992-47.104-128.512z" p-id="4075"></path></svg>