<?xml version="1.0" standalone="no"?><!DOCTYPE svg PUBLIC "-//W3C//DTD SVG 1.1//EN" "http://www.w3.org/Graphics/SVG/1.1/DTD/svg11.dtd"><svg t="1579587771411" class="icon" viewBox="0 0 1024 1024" version="1.1" xmlns="http://www.w3.org/2000/svg" p-id="4479" xmlns:xlink="http://www.w3.org/1999/xlink" width="200" height="200"><defs><style type="text/css"></style></defs><path d="M436 16h158.8v41.2H436zM436 66.8h158.8v32.8H436z" p-id="4480"></path><path d="M764.8 1004H256c-6.8 0-12-5.2-12-12V580c0-6.8 5.2-12 12-12 8.4 0 14-1.6 16.4-4.8 2.8-3.6 1.6-9.2 1.6-9.2-0.4-0.8-0.4-2-0.4-2.8 0-6.4-13.6-10.4-18.4-11.2-5.6-0.8-10-5.6-10.4-11.2-8-173.2 20.8-302 84.8-382.4 49.2-61.6 101.6-70.4 104-70.8 6.4-1.2 12.8 3.6 13.6 10 0.8 6.4-3.6 12.8-10 13.6-0.8 0-46.8 8.4-90.4 63.6C306.4 214.4 260.4 317.6 268 518.4c13.2 4 28.4 13.6 29.2 31.2 0.8 4.4 2 17.2-6.4 28.4-5.2 6.8-13.2 11.2-23.6 13.2V980H752v-388c-12.4-4-27.2-15.2-30-38.4v-2.8c0.4-2 2.8-20.4 16.8-30.4 2.4-1.6 5.6-3.2 9.2-4.4-5.6-12.8-17.2-30.8-42-30.8H624c-6.8 0-12-5.2-12-12v-236c0-6 4.4-11.2 10.8-12 10.8-1.2 40.8-8.4 51.6-26.4 5.6-9.2 6-20.8 1.2-34.8-13.6-17.6-52-59.6-83.6-64.8-6.4-1.2-10.8-7.2-10-13.6 1.2-6.4 7.2-10.8 13.6-10 48.8 8 98 72.4 100 75.2 0.8 0.8 1.2 2 1.6 2.8 8.4 22 7.2 41.2-2.4 57.2-14 23.2-43.2 32.4-58.8 36v214h70c46.8 0 66 42 70 64 0.8 4-0.8 8-3.6 10.8-2.8 2.8-6.8 4-10.8 3.2-5.2-1.2-7.2 0-8.8 1.2-4 2.8-6 9.2-6.4 12.4 2.8 16.8 16.4 18 18 18 6.4 0 11.6 5.6 11.6 12V992c0.8 6.8-4.4 12-11.2 12z" p-id="4481"></path><path d="M774.8 474.4c-6.4 0-11.6-5.2-12-11.6-6.8-192.8-56.4-234.8-56.8-235.2-5.2-4-6.4-11.2-2.4-16.8 4-5.2 11.6-6.4 16.8-2.4 6 4.4 59.2 49.6 66.4 253.6 0.4 6.8-4.8 12-11.6 12.4h-0.4zM336 630h88v280H336zM476 630h100v280h-100zM625.2 630h88v280h-88z" p-id="4482"></path></svg>