<?xml version="1.0" standalone="no"?><!DOCTYPE svg PUBLIC "-//W3C//DTD SVG 1.1//EN" "http://www.w3.org/Graphics/SVG/1.1/DTD/svg11.dtd"><svg t="1579587746831" class="icon" viewBox="0 0 1024 1024" version="1.1" xmlns="http://www.w3.org/2000/svg" p-id="3531" xmlns:xlink="http://www.w3.org/1999/xlink" width="200" height="200"><defs><style type="text/css"></style></defs><path d="M291.4816 375.9616c9.5744-99.1232 33.9712-189.5424 69.3248-256.5632 19.3024-36.736 41.4464-65.536 65.5872-85.76C453.12 11.2128 481.8688 0 511.6928 0c29.0304 0 57.088 10.752 83.1488 31.9488 23.7568 19.1488 45.4912 46.6432 64.512 81.7152 35.0976 64.0256 59.9296 151.1936 70.8352 247.296a370.176 370.176 0 0 1 55.0912-23.936c28.7488-9.472 45.6192-9.216 54.784 0.7168 2.304 2.5088 9.3184 11.9552 0.1536 25.1392-6.4768 9.216-13.1072 14.9504-18.8928 20.096-21.888 19.0208-49.152 42.5728-83.8144 357.8368-10.9312 100.3776-44.544 171.3152-99.6096 210.816a178.8928 178.8928 0 0 1-23.552 14.0544c1.6128 3.584 2.4832 7.424 2.4832 11.4176v13.2864c0 18.432-19.4304 33.6128-43.1872 33.6128h-80.1536c-23.7568 0-43.1872-15.2064-43.1872-33.7408v-13.2864c0-2.4832 0.3328-4.9152 0.9728-7.2704a192.1792 192.1792 0 0 1-51.328-29.568c-28.8768-23.3216-48.3072-53.12-56.0128-86.3744C297.3696 655.36 169.728 440.7552 131.6352 379.7504a22.9376 22.9376 0 0 1 2.176-27.648c7.936-9.5744 22.272-14.1312 36.4288-11.4944 28.5952 5.2736 72.3456 15.6416 121.2416 35.328z m33.9456 14.8736c74.8032 35.584 155.8528 93.5424 211.0976 187.392 12.544-51.0976 42.9312-100.1472 89.9072-144.0512a468.4544 468.4544 0 0 1 70.528-54.0672c-18.944-199.2192-98.432-349.0048-185.2672-349.0048-42.368 0-84.608 36.0192-119.04 101.4528-34.9952 66.56-58.752 157.9264-67.2256 258.304z m-27.6224 22.272a602.1888 602.1888 0 0 0-131.072-41.3952c43.1872 70.2464 165.6064 280.0896 211.4816 475.6992 6.2208 26.8032 21.888 50.8416 45.2352 69.76 24.4224 19.712 55.4496 31.9488 89.856 35.5328 26.624 2.7392 65.8688 0.4608 102.1952-25.4976 21.5808-15.5392 39.808-37.6832 53.8368-66.048 16.4608-33.024 27.5456-74.6496 32.9216-123.5712 31.5904-286.8992 58.1888-341.5808 83.712-367.4112-29.312 11.2384-72.9088 33.3824-115.968 69.2736-48.9728 40.6528-106.88 107.6736-104.9856 196.6848 22.272 55.04 34.816 116.5312 37.12 183.3984 0.256 8.6272-7.296 15.7952-17.024 16.0256-9.5744 0.256-17.8176-6.4512-18.0736-15.0528-2.9696-82.7904-22.016-156.3904-56.576-218.8288-53.2736-96.256-135.7312-153.5488-210.2272-187.4432a18.5088 18.5088 0 0 1-2.432-1.1264z m179.6096 564.8896v19.3024c0.5376 0.8448 3.3792 2.7648 8.1152 2.7648h88.2432c4.736 0 16.6144-1.92 17.152-2.7648v-20.0704a5.5552 5.5552 0 0 0-1.7408-1.3824 192 192 0 0 1-58.1888 8.7808c-7.68 0-14.976-0.4608-21.5808-1.0752a230.912 230.912 0 0 1-32-5.5552zM399.0272 191.36h112.256a9.8048 9.8048 0 0 1 0 19.6352h-112.256a9.8048 9.8048 0 1 1 0-19.6352zM484.352 256h112.256a9.8048 9.8048 0 1 1 0 19.6352H484.352a9.8048 9.8048 0 0 1 0-19.6352z m-86.6304 76.8h112.256a9.8048 9.8048 0 1 1 0 19.6352h-112.256a9.8048 9.8048 0 0 1 0-19.6352z" p-id="3532"></path></svg>