<?xml version="1.0" standalone="no"?><!DOCTYPE svg PUBLIC "-//W3C//DTD SVG 1.1//EN" "http://www.w3.org/Graphics/SVG/1.1/DTD/svg11.dtd"><svg t="1583286001495" class="icon" viewBox="0 0 1024 1024" version="1.1" xmlns="http://www.w3.org/2000/svg" p-id="4000" xmlns:xlink="http://www.w3.org/1999/xlink" width="200" height="200"><defs><style type="text/css"></style></defs><path d="M513.33499259 1012.25813333l-12.62174814-6.31087408c-99.03217778-49.51608889-422.22174815-228.64782222-422.22174815-454.01884443V52.64118518l39.07887407 16.7480889C241.96740741 122.42488889 391.60794075 103.00681482 495.98008889 21.69362963L513.21362963 8.22234075l17.23354074 13.47128888c104.37214815 81.31318518 254.13404445 100.85262222 378.40971852 47.69564445l39.07887408-16.7480889v499.28722964c0 225.49238518-323.18957037 404.50275555-422.22174815 454.01884443l-12.37902223 6.31087408z m-378.65244444-876.60468148V552.04977778c0 187.62714075 292.12065185 352.68077037 378.65244444 397.34234074 86.53179259-44.78293333 378.65244445-209.7152 378.65244444-397.34234074V135.65345185c-126.33884445 40.41386667-271.0034963 18.44717037-378.65244444-56.91922963-107.64894815 75.24503703-252.3136 97.21173333-378.65244444 56.91922963z" p-id="4001"></path><path d="M308.80441837 504.0907757l44.2817043-44.28049067 132.75651792 132.75651794-44.28049067 44.28170428z" p-id="4002"></path><path d="M421.02875022 616.42554785L673.49769482 363.95538963l44.28049066 44.28049067-252.47015823 252.47137185z" p-id="4003"></path></svg>