<?xml version="1.0" standalone="no"?><!DOCTYPE svg PUBLIC "-//W3C//DTD SVG 1.1//EN" "http://www.w3.org/Graphics/SVG/1.1/DTD/svg11.dtd"><svg t="1583285996960" class="icon" viewBox="0 0 1024 1024" version="1.1" xmlns="http://www.w3.org/2000/svg" p-id="3880" xmlns:xlink="http://www.w3.org/1999/xlink" width="200" height="200"><defs><style type="text/css"></style></defs><path d="M252.68497067 45.481984c-24.346624 0-44.07842133 19.07643733-44.07842134 42.62570667v85.229568c0 23.543808 19.726336 42.62570667 44.07842134 42.62570666s44.089344-19.08736 44.089344-42.62570666V88.10222933c0-23.543808-19.73725867-42.62024533-44.089344-42.62024533zM693.551104 215.957504c24.346624 0 44.08388267-19.08736 44.08388267-42.62570667V88.10222933c0-23.54926933-19.74818133-42.62570667-44.08388267-42.62570666-24.346624 0-44.089344 19.07643733-44.089344 42.62570666v85.229568c0 23.543808 19.74272 42.62570667 44.089344 42.62570667zM473.11530667 45.481984c-24.346624 0-44.07842133 19.07643733-44.07842134 42.62570667v85.229568c-0.01092267 23.543808 19.726336 42.62570667 44.07842134 42.62570666s44.089344-19.08736 44.089344-42.62570666V88.10222933c0-23.543808-19.73725867-42.62024533-44.089344-42.62024533zM767.84708267 565.58114133c-114.753536 0-207.76004267 93.03381333-207.76004267 207.781888 0 114.75899733 93.00650667 207.77096533 207.76004267 207.77096534 114.74807467 0 207.781888-93.011968 207.781888-207.77096534 0-114.74807467-93.028352-207.781888-207.781888-207.781888z m-133.136384 314.88955734c15.466496-25.41704533 23.199744-61.77860267 23.199744-109.068288v-113.8688c71.81653333 0.53521067 144.883712-3.02011733 219.201536-10.665984l16.531456 32.800768-80.80042667 5.7344v21.99825066h75.99991467v30.13563734h-75.99991467v18.13162666h66.93410133v92.798976h-34.668544v-62.6688h-98.664448v62.6688h-34.668544v-92.798976h64.53111467v-18.13162666h-72.26436267v-30.13563734h72.26436267v-19.86833066c-28.89045333 1.60017067-56.26811733 2.801664-82.132992 3.59901866v81.86538667c0 60.26581333-9.86862933 105.24535467-29.60042667 134.93316267-7.46564267-7.82062933-17.42165333-16.973824-29.86257066-27.459584z m242.663424 26.66769066a1480.74769067 1480.74769067 0 0 0-81.068032-42.66939733c-17.06666667 19.55157333-47.11492267 34.13333333-90.13384534 43.73435733-6.22592-12.26615467-12.26615467-22.66453333-18.13162666-31.20059733 33.41789867-7.01781333 56.868864-15.64125867 70.33105066-25.86487467 13.47310933-10.21815467 20.68753067-28.71022933 21.67057067-55.46530133h37.33367467c-0.44782933 16.35669333-2.801664 30.66538667-7.06696534 42.93154133 25.41704533 9.68840533 54.97378133 21.86717867 88.66474667 36.53085867l-21.59957333 32.00341333z" p-id="3881"></path><path d="M855.20110933 130.71701333h-73.48224v42.614784c0 47.08215467-39.469056 85.24049067-88.16776533 85.24049067s-88.178688-38.158336-88.178688-85.24049067v-42.614784h-44.08388267v42.614784c0 47.08215467-39.47451733 85.24049067-88.17322666 85.24049067-48.68778667 0-88.16776533-38.158336-88.16776534-85.24049067v-42.614784h-44.09480533v42.614784c0 47.08215467-39.469056 85.24049067-88.162304 85.24049067s-88.17322667-38.158336-88.17322667-85.24049067v-42.614784H91.029504c-24.35208533 0-44.08388267 19.08189867-44.08388267 42.614784v738.69994667c0 23.53288533 19.73179733 42.614784 44.08388267 42.614784h516.47829333c-35.618816-31.86141867-61.734912-74.11029333-73.613312-121.97888H446.72068267c-14.69098667 0-27.15921067-4.12330667-37.388288-12.36445867-10.22907733-8.24661333-15.351808-18.284544-15.351808-30.11925333v-32.33655467c0-11.83470933 5.12273067-21.76887467 15.351808-29.802496 10.22907733-8.02816 22.69184-12.04224 37.388288-12.04224h87.18472533a240.33143467 240.33143467 0 0 1 21.68695467-56.12612266H445.96701867c-2.916352 0-5.71255467-0.20753067-8.454144-0.53521067h9.207808c-14.69098667 0-27.15921067-4.12330667-37.388288-12.36445867-10.22907733-8.24661333-15.351808-18.284544-15.351808-30.11925333v-32.33655467c0-11.83470933 5.12273067-21.76887467 15.351808-29.802496 1.048576-0.8192 2.13538133-1.572864 3.227648-2.31560533 9.43172267-6.127616 20.56738133-9.19688533 33.406976-9.19688533h250.81173333a241.28170667 241.28170667 0 0 1 71.958528-10.98274134 240.70826667 240.70826667 0 0 1 130.547712 38.27848534V173.33179733c0-23.53288533-19.726336-42.614784-44.08388267-42.614784zM165.32002133 579.04878933c0.00546133 0 0.00546133 0 0 0a16.22016 16.22016 0 0 1 23.35266134 0l23.35266133 23.95886934 62.26466133-63.87575467v-0.00546133a16.22016 16.22016 0 0 1 23.35812267 0.02184533 17.23050667 17.23050667 0 0 1-0.016384 23.937024L227.60106667 634.93461333c-4.243456 4.34722133-10.15261867 5.54871467-15.581184 4.18884267-5.41764267 1.359872-11.33226667 0.15837867-15.57026134-4.18884267l-31.1296-31.92695466-0.00546133-0.01092267a17.25781333 17.25781333 0 0 1 0.00546133-23.94794667z m134.447104 158.84834134L229.720064 809.75189333c-4.243456 4.34722133-10.15261867 5.54871467-15.581184 4.18884267-5.41764267 1.359872-11.33226667 0.15837867-15.57026133-4.18884267l-31.1296-31.92695466-0.00546134-0.01092267a17.24142933 17.24142933 0 0 1 0.00546134-23.94794667h0.00546133a16.22016 16.22016 0 0 1 23.3472 0l23.35266133 23.95886934 62.26466134-63.87575467v-0.00546133a16.22016 16.22016 0 0 1 23.35812266 0.02184533 17.219584 17.219584 0 0 1 0 23.93156267z m2.31560534-353.19534934L232.04113067 456.55108267c-4.23799467 4.34722133-10.14715733 5.54871467-15.57572267 4.18884266-5.41764267 1.359872-11.33226667 0.15837867-15.57026133-4.18884266l-31.1296-31.92695467-0.00546134-0.00546133a17.24689067 17.24689067 0 0 1 0.00546134-23.94794667l0.00546133-0.00546133a16.22016 16.22016 0 0 1 23.3472 0.00546133l23.35266133 23.953408 62.26466134-63.87575467a16.22562133 16.22562133 0 0 1 23.35266133 0.01092267 17.22504533 17.22504533 0 0 1-0.00546133 23.94248533z m532.64384 48.82978134c0 11.83470933-5.12273067 21.87264-15.34634667 30.11925333-10.23453867 8.241152-22.429696 12.36445867-36.601856 12.36445867H446.71522133c-14.69098667 0-27.15374933-4.12330667-37.38282666-12.36445867-10.23453867-8.24661333-15.351808-18.284544-15.351808-30.11925333v-32.33109334c0-11.83470933 5.11726933-21.76887467 15.351808-29.802496 10.23453867-8.02816 22.69184-12.04770133 37.38282666-12.04770133h336.06314667c14.17216 0 26.36731733 4.01408 36.601856 12.04770133 10.223616 8.03362133 15.34634667 17.96778667 15.34634667 29.802496v32.33109334z" p-id="3882"></path></svg>