<?xml version="1.0" standalone="no"?><!DOCTYPE svg PUBLIC "-//W3C//DTD SVG 1.1//EN" "http://www.w3.org/Graphics/SVG/1.1/DTD/svg11.dtd"><svg t="1573798958582" class="icon" viewBox="0 0 1024 1024" version="1.1" xmlns="http://www.w3.org/2000/svg" p-id="1188" xmlns:xlink="http://www.w3.org/1999/xlink" width="200" height="200"><defs><style type="text/css"></style></defs><path d="M481.17528803 877.72603278c-1.98512299 14.6689536-3.06326073 36.73350941-5.29754225 51.18240996-4.45925035 28.80815218-11.04333824 55.74761131-14.20323499 55.49146681-8.85912121-0.71138418-35.20246101-8.33751723-49.89819335-10.58926365-6.18473586-0.94773589-13.36028615-1.69870677-19.62885006-1.90595072-7.39793123-0.2561445-16.32923762 0.69741227-21.91203328 6.16727097-2.53467079 2.49275619-3.72458041 5.50129437-3.72458041 5.50129436 7.99870749 0.27011641 4.97386837-2.95498069 10.88965177-1.29586062 5.74463203 4.25782727 9.35278251 3.72225138 12.74553799 4.91681792 18.69392099-0.41216 38.49159453 2.62082787 38.49159452 2.62082788s-34.98939506 4.78641721-43.00323726 0.94074994c-3.07839659-1.47865486-9.82548594-3.03415296-17.08253753-4.02846038-10.02341603-1.3657179-29.6522661-0.69508437-39.07607097 4.45459342-8.57503289 4.68745216-12.14359779 15.49327474-8.9674001 24.29767339 5.39650731-10.95950905 18.58331307-10.57063481 18.58331306-10.57063481s14.80634027 5.52923705 28.12820366 6.91241984c13.31371349 1.38551069 36.31436231-1.95950819 50.90065067 1.91177273 12.4055643-0.72419101 27.74049337 1.62652046 27.74049337 1.62652047s-18.39469795 2.74191474-22.15769884 18.85459456c-0.45756757 10.41229027 6.32910734 21.26701341 6.32910734 21.2670134s4.16119011-8.52962531 10.91293753-14.04372651c12.03182478-9.81617209 48.00155648-3.05161785 52.50388537-11.60569287 7.30013013-3.78279481 8.2036224-29.50207261 8.2036224-29.5020726s26.7974144 17.84398621 26.05110158 26.24903168c6.4420443-3.27749063 5.65847381-6.66558919 5.21371306-10.0047872-0.45407459-3.34036195-4.69094514-11.51720675-13.34864326-20.03635314-8.65304121-8.54126819-17.56804779-23.64683264-17.10233032-34.04282311 0.44592469-10.39948345 7.60051826-13.23687026 7.5877103-22.40452949 0.01513586-9.16067328-1.75226425-12.04346766-0.64851286-22.3626149 0.38421731-3.48706361 2.96778752-26.37244757 5.06235449-42.67956338 12.63725795-2.91655907 17.69029859-10.37852558 20.52302848-19.65912178 4.89935303-16.03001458 11.09456782-30.47775118 18.74747847-42.95666574 16.25588736-2.78150144 39.62328974-3.04230286 63.1525285-5.40931527 5.87503275 16.54230357 19.94786702 48.99586389 26.17568142 65.43571057 11.30064782 29.82341746 19.80698738 58.44877539 16.9800795 59.14502486-7.91022023 1.97231616-34.35252509 2.37166933-48.04347107 4.57567914-5.76908174 0.92910706-12.27283456 2.34838357-17.72057031 4.03078941-6.43156537 1.98163001-13.54191531 5.61306624-15.42923833 12.70245945-0.85459285 3.22276921-0.28525227 6.56313117-0.28525227 6.56313116 6.95317049-2.14928839 2.68370034-4.41617067 8.5890048-4.56752924 7.12548579 2.48111331 9.92095801 0.86274275 13.43247246 1.0199222 15.70634069-6.03687026 34.15925305-9.01047979 34.15925306-9.01047978s-27.29224078 15.28137273-36.13739008 13.89935388c-3.38576953-0.53324686-9.95705173-0.04307854-16.65291264 1.16545991-9.25614535 1.66494208-25.6191488 8.25252295-30.94929067 16.17555115-4.84928853 7.22212181-2.22846066 18.97335239 5.0926262 26.72522809-1.14566599-12.46261475 10.27956053-16.04980736 10.27956053-16.04980736s15.51888839 1.0036224 27.58564296-1.63932729c12.07141149-2.64294969 29.9060827-12.88641763 44.35847736-13.45692217 10.18408846-4.45575737 24.47231773-6.75756829 24.47231773-6.75756829s-14.22652075 8.25834496-8.98370105 25.32923848c5.05653362 10.42276921 16.52600377 19.10957511 16.52600377 19.10957511s-0.92561408-9.68111331 1.94204445-17.1698597c5.10543417-13.33350741 39.28098702-17.48654763 38.6348032-27.2992256 4.23686941-5.94605511-8.46908189-31.64321109-8.46908189-31.64321109s32.17296498 9.56934144 35.93945998 18.09314474c3.77231587-5.17994837 1.32962531-8.28978062-0.79987029-11.45433429-2.13997454-3.17153963-10.02690901-9.97335154-21.87128263-15.79366286-11.84670265-5.83311815-27.34929123-18.07568099-32.40116679-28.49845021-5.06584747-10.42393315-0.47270343-15.37800875-5.27658553-24.4338961-4.79223808-9.06520121-7.80776221-11.38331307-12.27166948-21.9108682-1.563648-3.69547264-10.67891371-31.77594083-17.14075193-49.30323797 2.24825344-0.52975389 4.46157824-1.10025842 6.63881046-1.72548551 20.86416725-5.97749077 202.79458361-85.76895886 181.10027434-245.12369437 44.73687267-15.98460701 85.4813787-84.40091307 70.7402388-110.66275157-4.81901682 5.10194119-22.92729856 8.19314461-41.53156836 7.21862884 60.48396402-12.95278194 112.33817259-125.92433152 96.41527296-154.91644303 1.19922347 0.94773589-6.33376541 7.54696078-18.59612103 16.09055801 15.79599075-20.45666418 25.5795621-64.05136384 16.81009209-83.30647552-10.41811229-5.58978048-23.01578467-3.25304093-34.26171108 1.28072476 6.84954738-14.57231645 11.98641721-44.98952533-2.81759402-61.93001813-15.50724551-3.18318251-31.73751922 6.66326016-42.99392342 16.39443911 12.2099621-25.83454265 1.07347968-88.34088733-34.29547463-68.87969564-11.599872 6.37917298-22.30556445 18.94308067-28.07231829 29.78965276-10.36338973 19.48447744-56.42057387 145.49031026-110.57659449 175.99484018-65.7279488-11.73143666-205.46431203 34.82988658-262.23650361 0.64269084-21.75834567-18.62289977-34.68318493-52.30711922-44.79625216-103.98901248-5.70737437-58.13790947-57.81889251-126.80570311-92.68254379-137.43688134-11.76403741-3.58602866-18.40051883-9.63570574-28.51009308-14.3068581-2.89443726-1.33544619-5.93790521-2.58822827-9.06520121-3.64424306 3.65821497-10.17710251 5.34527886-31.14722077 3.4148773-43.88926578-3.64424306-24.03919986-26.14773874-8.61694749-29.775682-13.28227783-9.52276878-12.26584861-22.84114034-0.82315605-26.61694918 9.64851257-1.96300117 5.44890083-2.99805923 9.95705173-5.73997512 1.72199253-5.39650731-16.22328775-23.84825571 0.75213483-22.84579726 10.85472313 1.39482567 13.95524039 1.06649373 15.72613347-3.80608057 8.05459286-4.87141035-7.67270457-5.53273003-6.40944469-9.71371406-5.7097034-4.17981895 0.69741227-21.00388295 2.97593856-17.52147627 16.22677959 5.98331278 22.77011797-6.33143637 5.45937977-15.11371434 13.92496867-11.81177287 11.38913394-22.33467221 54.12691285-0.09547208 59.7062144-25.83104967 4.21707662-33.69935645 34.73907143-31.53842403 38.13997682 15.1789147-4.85860352 26.06740139-2.53816377 44.02432455 0.98615752 0 0-2.27386823 14.39534421 6.08576967 22.7642971 8.35847395 8.37011683 10.96183808 36.88719587 32.55368932 32.00647054 13.74916039-3.10517533 21.54760875-5.67244573 25.39909689-12.530143 1.82561451 46.63118165-20.79198094 139.82135751-35.07089522 223.9894107-18.69392099 110.18888419-15.31280839 178.12666482 72.96869945 255.43818467 29.42173639 25.76584931 65.40660281 48.23092224 106.49923243 62.87775403 33.11138702 25.50388281 62.18732771 45.99547563 71.1081563 98.09069397C442.0514816 888.89278691 457.8719232 881.5647141 481.17528803 877.72603278L481.17528803 877.72603278z" fill="#A18CBA" p-id="1189"></path><path d="M647.13390535 802.34724352c4.16701213 28.62303005 14.0774912 54.91397632 20.80245988 71.71126045 5.06002659 12.63725795 29.26222791 82.0187648 25.60866986 83.75589318-8.24670208 6.0135845-17.86494293 12.94346809-26.13493077 18.95821654 2.17024626-5.26959957 3.65355805-12.53130809 7.86830563-16.72509895-11.36468423-3.04230286-29.56727296-2.65109959-74.45084728 10.39133355 10.49961245-8.33169522 38.41824427-10.31332523 54.54140188-24.04036381-3.83402325-4.06804707-8.50284658-3.96209607-22.47322282-5.16131954 8.96157923-0.98382962 21.14709049-2.43570574 30.80491804-2.18305308 14.32082887 0.38188829-0.58913337-32.43958841-16.50271801-71.14657792-4.98085433-12.12147598-15.83557746-40.86093483-28.60090823-61.05912548C628.27116089 805.83081415 637.94296035 804.43598848 647.13390535 802.34724352L647.13390535 802.34724352z" fill="#A18CBA" p-id="1190"></path><path d="M512.01280683 875.53482979c-9.54023367 24.36170979-10.29702542 46.39017187-12.38693547 62.22924232-1.6137125 12.29612032-14.04372651 78.67723776-18.57050624 79.0556342-11.30763378 2.62781383-24.44786802 5.64333795-35.7718016 8.26998784 4.90750407-3.83868131 10.17128163-9.57516231 16.54463261-11.87580928-9.64152775-6.0217344-27.8406235-11.16675413-79.05563421-13.58965191 14.74696078-3.92949533 43.38978361 2.79430827 66.52781909-4.03195335-1.66610603-4.62108672-6.33725838-5.93790521-19.52406414-11.16908203 9.38538211 1.85588622 22.19029959 4.29624889 31.60478948 7.42354489 13.96455538 4.63971555 16.42238179-27.79870891 20.97244728-65.5719333 1.34476117-11.19586077 3.33687011-30.15640633 1.52406244-48.97257813 4.58848711-0.66946958 9.44010467-1.12238023 14.58046748-0.96752867C503.68576853 876.49304462 508.16714069 876.1926565 512.01280683 875.53482979L512.01280683 875.53482979z" fill="#A18CBA" p-id="1191"></path><path d="M665.31902919 340.56453917c34.67969195 4.50349283 71.95227022 9.10944483 92.98875278-2.48577024 42.33842574-23.33596558 79.34554339-104.71087559 111.26818475-142.20001167 2.05381632-2.41358393 4.8201819-5.33596387 8.11979321-8.37360981 2.44152661-17.28163157-4.11578254-45.29922731-14.22069988-53.94644651-10.55316992 1.26325987-21.18318421 12.39508537-29.55912306 24.10323627-24.18124345 46.36688611-72.9675355 151.61915847-123.19755264 165.27168284 11.32626261 2.50207005 20.17490489 6.95317049 25.60983382 14.20556402-22.93661241-23.24515043-192.27284935 10.75342905-210.58837504 15.30349454-25.70879886 6.37917298-84.48008419 13.30090667-109.24114716-23.31267982-6.3838299-10.68473571-9.37141134-22.07619869-12.98188971-33.18357333-16.88460629-51.93454478-31.76895488-179.33753117-102.15757597-201.73391076-12.65122987-4.0226395-8.17567971-4.54890041-19.10957511-12.02367488-10.22134613-6.98344221-26.7310501-13.05174699-47.16675641-10.78719374-14.26028544 4.87373938-26.88124473 5.58861653-40.57218958 12.74786702-7.92535609 4.79922403-9.58797027 11.55446443-14.11474887 16.75187769-3.15989675 5.85989689-12.78745259 11.7663653-16.40375296 14.29055716 16.19883691 7.60051826 22.42199438 30.34502144 10.28188957 38.08292636-0.27360939 0.17231531-0.58680434 0.34230272-0.94657195 0.49249735-8.84747833 6.02755527-10.87218688 15.53518933-6.51423061 23.97749248 7.52833195 14.58395933 7.78098347 11.55679232 11.91539598 17.47606869 9.75329963 13.95058347 27.66248619 10.67891371 34.86947214-1.52406243 7.20931499-18.20724565-7.73790493-16.66571947-8.4329893-27.13389625-1.59624875-23.86571947 40.89120654 2.39495509 41.79004188 20.37865586-8.59831865-14.06468437-25.6692133-23.29754397-26.11397404-17.2781386 1.46701198 7.33505877 1.3494181 15.15912192 0.52626091 22.69676772-0.32250994 2.9526528-0.88137159 5.45122987-1.72897849 7.58421845 12.12846194 32.04140032-10.40763335 131.06585827-21.76766066 224.06276096-12.30659925 100.82911573-8.16636587 159.2569344 63.39004416 234.68928228 27.75562923 29.2564059 60.15213909 56.65110471 88.53183147 75.35201166-22.96921315-18.60427093-46.82096071-41.72367758-66.51617621-80.76714781 44.97671737 54.24916366 102.16339797 76.36611299 140.28008902 123.03920811 14.91345522 18.26429611 21.54760875 43.32109027 34.37115392 71.72872533 7.0020699 15.51772445 32.7690843 3.71992235 44.21759773 5.47102266 11.44967737 1.75226425 28.3424347 2.28784014 28.14333952-21.22044189-0.25498055-29.58124487 40.82134926-54.88370461 77.33364167-65.06313614-21.38810027 7.34088078-38.13066297 21.42652189-51.0170806 40.7165622 21.57788046-16.75537067 47.70698923-21.60698709 83.17258183-24.49443953 34.30362567-2.79547221 198.65551417-86.12174051 196.18720881-228.15875186-13.09249763 4.58499413-26.50284829 4.68046621-38.96662698-2.13065956 72.43312355 1.37037483 101.04916765-90.52044743 101.04916764-90.52044743-9.22121671 1.69870677-31.7491621-2.13182464-41.24631608-9.75679261-9.23635257 0.44476075-18.60776391-1.59974173-27.91164474-6.76455424 76.89819477 16.24890141 110.72445895-95.46055111 120.04464186-116.17219584-63.80453319 35.86145166-89.28047331 33.83208619-105.21617978 28.26675542 27.36791893-2.47179833 65.57076821-22.91332665 91.10026582-39.56623929 16.57723335-20.90375282 18.03958727-62.75201024 12.76300288-73.69289159-21.83402496-7.91953522-73.7173413 24.81927737-120.77698276 70.26520633 26.62044217-36.21889024 48.77464803-54.19560619 75.32406898-71.39573647 4.69676601-3.04346681 11.83389469-7.60051826 19.95136-11.30530474-0.6100901-18.36326115 1.82212153-36.42380629-6.35588722-45.38654948-49.97969351 4.14954723-82.82911403 148.84347904-160.39677952 164.59173433C743.69704391 354.09364765 693.06534457 357.69248427 665.31902919 340.56453917L665.31902919 340.56453917z" fill="#A18CBA" p-id="1192"></path><path d="M197.87435918 424.00607232c-12.30659925 100.82911573-8.16636587 159.2569344 63.39004416 234.68928227 27.75562923 29.2564059 60.15213909 56.65110471 88.53183147 75.35201167-22.96921315-18.60427093-46.82096071-41.72367758-66.51617622-80.76714781-23.25562937-23.99379229-65.7197989-57.00970723-75.49987726-106.81824938-16.04864341-81.71604878 5.89599061-142.43869241 17.26300274-222.01360157C211.03787918 365.95432107 207.47979321 385.66816541 197.87435918 424.00607232L197.87435918 424.00607232z" fill="#A18CBA" p-id="1193"></path><path d="M599.96365597 338.58989511c-36.09314645 5.64915997-66.97723677 12.05045362-74.22264548 13.85161842-25.70879886 6.37917298-84.48008419 13.30090667-109.24114716-23.31267982-6.3838299-10.68473571-9.37141134-22.07619869-12.98188971-33.18357334-11.12716743-34.22561735-21.38460729-101.21333305-47.22962887-149.33597639 36.20957639 82.5287259 19.51242126 203.41980957 94.85046101 220.32537373 79.73791061 17.89521465 110.27271339-21.30659897 189.18979584-16.7344128C634.38021746 345.02844643 622.23778361 341.18976626 599.96365597 338.58989511L599.96365597 338.58989511zM300.57915392 93.96102599c-11.67671523-3.79443769-7.62729699-4.45925035-18.32716857-11.77335125-8.13609415-5.55950877-20.25757013-10.53104925-35.17917525-11.18538297 11.22962546 3.31358322 23.13803549 8.29793053 30.11681963 15.57943182 15.99741383 16.69249821 27.99314603 25.37464605 27.99314602 25.37464604L300.57915392 93.96102599 300.57915392 93.96102599z" fill="#A18CBA" p-id="1194"></path><path d="M750.12861042 341.55302571c2.93402397-0.94773589 5.6759387-2.09456697 8.18033664-3.4730917 42.33842574-23.33596558 79.34554339-104.71087559 111.26818475-142.20001166 2.05381632-2.41358393 4.8201819-5.33596387 8.1197932-8.37360982 2.07710208-14.69573234-2.36351943-37.13402653-9.94890069-48.84683434C846.88385707 218.05508494 789.81826446 308.60464014 750.12861042 341.55302571L750.12861042 341.55302571zM497.50103381 853.39692373c1.71617053-0.10478706 3.28214755-0.08499314 4.64786546 0.12225081 11.44967737 1.75226425 28.3424347 2.28784014 28.14333952-21.22044188-0.25498055-29.58124487 40.82134926-54.88370461 77.33364167-65.06313615-21.38810027 7.34088078-38.13066297 21.42652189-51.0170806 40.71656221 21.57788046-16.75537067 47.70698923-21.60698709 83.17258183-24.49443954 34.30362567-2.79547221 198.65551417-86.12174051 196.18720882-228.15875185-13.09249763 4.58499413-26.50284829 4.68046621-38.96662699-2.13065956 49.95291477 0.94424291 79.05679815-42.46649742 92.31695417-69.5049216-65.73726265 69.14631907-131.16482333 63.50996707-205.31993942 23.85174869-40.12393586-21.4567936-61.48642133-44.69263019-108.2223889-89.44463872 7.29430813 14.95187683 11.73725867 22.70724665 29.15161998 41.58279794 11.1562752 12.09004032 21.43001486 21.86662571 35.2781403 34.03001629 50.12523008 51.45369145 107.20945266 79.28499997 146.17025764 88.65408227-8.67050496 20.67205917-60.92988871 78.84489614-168.29652082 85.83299527-22.61876053-1.96882318-81.09082169-28.37270642-108.41799111-88.4608091 5.32781397 36.72419442 36.6275584 71.23390009 61.92186823 86.53739463-109.6533083 34.28848981-208.08397597-69.78202397-233.74387428-124.32924672 20.87348224 140.43377664 180.44244765 185.12640569 302.58398436 174.91786752-12.89107456-5.78188971-22.44062322-13.57102307-29.32626432-23.36041643 26.65653475 4.00517461 89.97555769 9.34463261 137.29600171-18.69741397-18.24333938 48.69547577-88.55744626 91.42859776-135.29574173 108.15718855 3.99935374-6.3442432 22.65485312-23.03557746 26.65537081-41.0623579-12.65705187 13.35446414-48.64657635 11.68952206-79.30595783 28.37852729-30.66054542 16.68900523-49.30091008 32.83195563-51.32212565 59.41863424C508.34527801 839.92486571 503.13156494 847.69653533 497.50103381 853.39692373L497.50103381 853.39692373zM856.80598016 452.88873984c-9.23635257 0.44476075-18.60776391-1.59974173-27.91164473-6.76455424 63.41915193 13.40220075 97.52833934-60.22432541 112.76896142-98.07206514-36.11992519 52.59004359-88.52600946 103.75731769-165.9446454 84.36831232C787.68061781 453.27528619 825.86600334 458.5297499 856.80598016 452.88873984L856.80598016 452.88873984zM862.17803662 354.47553707c24.39547449-7.15575751 52.47827058-22.66998898 72.64618951-35.82303005 12.30077725-15.51073849 16.27451619-42.54450574 15.35355904-59.93790919-16.44916053 45.79871061-97.79263488 43.19185351-125.80208071 82.90712235 7.66338958-3.33687011 46.64864541-26.03829475 77.64334365-24.3698597C900.05721202 322.32934969 867.49420885 351.04203093 862.17803662 354.47553707L862.17803662 354.47553707zM852.60869632 284.08109397c16.29198109-17.12910905 31.95291307-28.86520263 49.52561891-40.25200867 4.69676601-3.04346681 11.83389469-7.60051826 19.95136-11.30530475-0.55653262-16.77632739 1.4157824-33.29068829-4.4743862-42.8553728C894.19149426 217.46245859 870.71348395 252.93852899 852.60869632 284.08109397L852.60869632 284.08109397z" fill="#A18CBA" p-id="1195"></path><path d="M173.35081301 153.73709767c-8.87192803 6.02406229-10.89896562 15.55265309-6.53518848 24.00660025 7.52833195 14.58395933 7.78098347 11.55679232 11.91539598 17.47606869 9.75329963 13.95058347 27.66248619 10.67891371 34.86947215-1.52406243 7.20931499-18.20724565-7.73790493-16.66571947-8.4329893-27.13389625-1.37619683-20.55330019 29.9561472-3.92018147 39.24722233 12.57904356-0.79637731-2.66041458-2.01772373-6.48163101-3.71293639-11.06080314-3.36364885-9.10012985-14.1275557-14.65614563-12.44631381-20.38331392 1.68589881-5.72949618 11.1062107-26.28279637 17.83117824-27.29224078 6.72263965-1.01060835 12.77580971 0.00232903 12.10401109-3.70129351-0.67063353-3.70827947 0.67296256-1.68706389-10.0862885-6.74359751-10.76623587-5.05187669-13.45808611-9.44359765-25.22445255-12.46727168-15.56662499-3.99935374-44.16287517 4.23337643-46.9862912 28.1945691 6.38266595 9.73467079 6.77037625 22.23920014-1.61837056 27.58564296C174.01213155 153.44136761 173.69660757 153.58923207 173.35081301 153.73709767L173.35081301 153.73709767z" fill="#A18CBA" p-id="1196"></path><path d="M125.61355093 142.18612736c9.74980665-1.16895175 22.99948487-5.26727054 34.72509952 0.65549767-15.20452949 0.46688256-22.48486571-0.88369949-36.56235804 5.58279452 12.17270443-1.31099648 28.17128334 0.42380288 40.46973156 2.6254848 10.20155335-9.21888768 6.37335097-21.52432299-0.7998703-28.05136042C152.51808142 121.51057522 126.03153294 132.87991637 125.61355093 142.18612736L125.61355093 142.18612736z" fill="#A18CBA" p-id="1197"></path><path d="M316.33672306 461.74204018c-1.03389411 73.79767751 47.51837411 143.95693283 102.31708444 182.88397425 47.09689913 33.45019677 102.16106894 49.84696377 138.37996032 40.03777878 15.06947072-4.08201899 16.77283442-5.11474802 32.42445255-3.68965063 49.87840057 4.55821539 144.46340096-19.69172253 167.26029881-41.93092153 48.44398819-30.12613461 48.24373021-65.31928064 48.24373021-65.31928064-38.6033664-12.49521437-111.99354083-38.41824427-150.48280747-71.48655161-4.00750365-3.44747805-7.48641735-7.47360939-10.51125533-11.54165646-5.49663744-7.40142421-7.41306709-10.88965177-15.3931446-15.72147655-3.57787875-2.16209635-7.10685696-4.39637789-10.36106183-7.30362312-20.67904398-18.45989831-37.94786873-41.69456981-50.88784384-66.15524465 1.83027143 10.96649501 21.15989845 52.94166016 47.19004331 77.07400419 3.03764594 2.81410105 6.27438592 4.75381646 9.44708949 6.34307926 7.59469625 3.79676672 9.19793095 6.08926265 14.40349411 13.04941909 1.63234133 2.17141021 3.34967694 4.30206976 5.20672712 6.14514915 38.86533291 38.63131022 99.15485981 78.59224462 128.75473237 82.86287872-23.38486613 47.53700295-116.79625785 81.82199865-184.49186589 76.778273-15.53518933-1.15498098-21.71876011-1.82794354-36.44825713 0.2398447C505.96080185 670.36159203 365.56311893 650.28565219 316.33672306 461.74204018L316.33672306 461.74204018z" fill="#A18CBA" p-id="1198"></path><path d="M758.81541518 399.75380651c25.16158009-21.00038997 78.16611271-100.08978887 159.76922453-83.69302073C875.53948672 319.76440832 833.41179904 338.24992029 758.81541518 399.75380651L758.81541518 399.75380651z" fill="#A18CBA" p-id="1199"></path><path d="M190.70113678 115.91497273c0.74864185-0.41798201 5.87736178-0.11177187 8.53894031-3.22276921 12.72341618-14.85756871 22.89819079-14.85873379 35.623936 0 2.66274247 3.11099619 7.95562781 2.88628736 8.5389403 3.22276921-2.10737379 0.81267826-7.02884978 1.89780082-8.5389403 3.6686939-6.51772359 7.61216114-10.34941895 11.10504675-20.10271858 11.10504676-9.31319581 0-12.86429582-7.99987143-15.52005348-11.10504676C197.72998656 117.81277469 192.80851171 116.72881493 190.70113678 115.91497273L190.70113678 115.91497273z" fill="#A18CBA" p-id="1200"></path><path d="M256.93671879 60.6063013c3.50802147 0.31901696 7.04747747 1.07930169 10.50892743 2.1131958-1.23182421-11.9619675 2.59754211-32.93092181-3.13311801-38.47412963-1.81513557-1.75808512-10.96765895 3.13661099-13.78991104 4.22988344-6.08576967 0.94307897-5.84709006-9.91513714-9.53674069-12.78163057-19.35873365-15.04967794-7.12548579 21.59883719-26.15006663 18.63454265-14.09495609-2.19120299-15.65161813-15.10789234-16.8403638 4.85860352-0.50879715 8.59599075-10.7208283 21.99935545-16.3164308 7.527168-10.85355805-12.88525369-16.55161856 5.72367417-15.1288502 13.39055786 1.33195321 7.16390741 3.73156523 24.15213682-7.15575751 19.01992392-15.00194133-7.06843534-20.73958741 12.34269184-17.33868203 22.19379256 1.01410133 2.94566685 6.15213511 9.78939335 11.40659883 12.37994952 1.96533021 0.97102165 4.43130653 0.68809842 6.8041398-0.00582202 18.91746589-5.53040099 17.34683193-22.33234318 30.32988559-33.55381873 6.0135845-5.14152675 11.50672782-7.2815013 18.05938005-8.91384263C225.23180032 67.08676722 238.71200825 58.95998805 256.93671879 60.6063013L256.93671879 60.6063013z" fill="#A18CBA" p-id="1201"></path><path d="M215.54486499 105.93696427c5.00879701 0 9.04890141 4.04126834 9.04890141 9.0489014s-4.04010439 9.04773632-9.04890141 9.04773632c-5.00646912 0-9.04657237-4.04126834-9.04657237-9.04773632S210.53839587 105.93696427 215.54486499 105.93696427L215.54486499 105.93696427z" fill="#A18CBA" p-id="1202"></path><path d="M214.5074779 110.00035442c2.49857707 0 4.51280782 2.01423075 4.51280783 4.51280782 0 2.49857707-2.01423075 4.51280782-4.51280783 4.51280782-2.49857707 0-4.51280782-2.01423075-4.51280782-4.51280782C209.99467122 112.01458517 212.00890083 110.00035442 214.5074779 110.00035442L214.5074779 110.00035442z" fill="#A18CBA" p-id="1203"></path></svg>