<?xml version="1.0" standalone="no"?><!DOCTYPE svg PUBLIC "-//W3C//DTD SVG 1.1//EN" "http://www.w3.org/Graphics/SVG/1.1/DTD/svg11.dtd"><svg t="1574143973948" class="icon" viewBox="0 0 1024 1024" version="1.1" xmlns="http://www.w3.org/2000/svg" p-id="1548" xmlns:xlink="http://www.w3.org/1999/xlink" width="200" height="200"><defs><style type="text/css"></style></defs><path d="M856.51911111 71.11111111c0.79644445 26.39644445 0 57.344-4.89244444 85.90222222l-0.11377778 0.56888889-0.11377778 0.56888889c-1.70666667 12.74311111-6.144 29.92355555-17.408 39.02577778-7.39555555 6.03022222-15.81511111 6.94044445-20.02488889 6.94044444-2.61688889 0-4.096-0.34133333-4.32355555-0.34133333-8.07822222-2.048-18.88711111-6.37155555-24.576-15.01866667-4.32355555-6.59911111-5.57511111-15.24622222-3.75466667-26.05511111 2.27555555-7.73688889 13.312-32.54044445 64.17066667-81.23733333 3.64088889-3.52711111 7.39555555-6.94044445 11.03644444-10.35377778M885.19111111 1.82044445s-122.08355555 94.54933333-137.32977778 153.37244444c-7.73688889 40.84622222 12.62933333 71.45244445 53.36177778 81.69244444 3.41333333 0.79644445 7.73688889 1.36533333 12.62933334 1.36533334 24.34844445 0 62.80533333-13.76711111 71.22488888-75.54844445 12.97066667-73.95555555 0.11377778-160.88177778 0.11377778-160.88177777zM915.91111111 282.624c-18.65955555 16.384-40.39111111 31.85777778-64.28444444 42.89422222-12.97066667 5.00622222-27.30666667 7.85066667-39.59466667 7.85066667-9.67111111 0-17.74933333-1.82044445-22.18666667-5.00622222-1.47911111-1.024-4.89244445-3.52711111-5.34755555-13.53955556 0-0.22755555 0.11377778-0.68266667 0.22755555-1.25155556 0.45511111-1.82044445 1.59288889-4.66488889 4.32355556-7.85066666 4.89244445-5.46133333 21.39022222-18.20444445 68.72177778-19.22844444h0.91022222c22.41422222-1.25155555 41.18755555-2.50311111 57.23022222-3.86844445m98.98666667-68.72177778c-17.74933333 25.6-55.97866667 33.22311111-157.92355556 38.34311111-111.84355555 2.50311111-106.60977778 63.82933333-106.60977777 63.82933334 1.59288889 37.888 29.696 51.42755555 61.66755555 51.42755555 17.63555555 0 36.52266667-4.096 52.79288889-10.58133333 83.968-38.11555555 144.95288889-125.15555555 150.07288889-143.01866667zM859.36355555 420.75022222c-25.14488889 27.76177778-49.26577778 49.152-63.82933333 57.00266667l-0.45511111 0.22755556-0.45511111 0.22755555c-32.54044445 18.432-51.54133333 22.30044445-61.66755555 22.30044445-7.168 0-11.264-1.93422222-14.10844445-4.096-0.56888889-0.56888889-1.024-1.25155555-1.59288889-1.82044445-9.78488889-11.37777778-18.20444445-21.27644445-11.37777778-45.39733333 0.11377778-0.11377778 0.22755555-0.34133333 0.34133334-0.45511112 1.36533333-1.93422222 3.86844445-4.89244445 8.192-8.192 9.67111111-7.28177778 28.55822222-16.04266667 63.488-16.15644444 5.57511111 0.22755555 11.264 0.22755555 16.83911111 0.22755556 21.61777778 0 43.57688889-1.36533333 64.62577777-3.86844445m86.92622223-61.09866667c-11.83288889 14.336-76.91377778 30.83377778-151.66577778 30.83377778-5.34755555 0-10.80888889-0.11377778-16.27022222-0.22755555-86.47111111 0-104.33422222 45.96622222-104.33422223 45.96622222-15.36 48.58311111 10.12622222 71.56622222 20.48 84.30933333 10.01244445 8.98844445 22.528 14.10844445 38.4568889 14.10844445 20.13866667 0 45.73866667-8.192 78.50666666-26.73777778 48.24177778-25.6 132.20977778-130.50311111 134.82666667-148.25244445z" fill="#f9b906" p-id="1549"></path><path d="M795.98933333 571.73333333c-7.28177778 7.73688889-14.56355555 14.56355555-21.27644444 20.36622222-31.63022222 27.42044445-63.14666667 43.57688889-80.55466667 49.03822223l-1.024 0.34133333-0.91022222 0.34133334c-24.576 9.44355555-39.82222222 11.37777778-48.35555555 11.37777777-8.64711111 0-11.94666667-1.82044445-13.42577778-3.29955555-3.75466667-11.83288889-0.79644445-33.792 2.61688888-45.85244445l0.11377778-0.45511111c0.45511111-1.13777778 2.50311111-6.48533333 8.07822222-11.71911111 8.41955555-7.85066667 21.27644445-11.83288889 37.888-11.83288889 1.25155555 0 2.50311111 0 3.75466667 0.11377778h2.50311111l2.16177778-0.11377778c35.38488889-1.36533333 72.93155555-2.73066667 108.43022222-8.30577778m76.34488889-61.44c-45.73866667 30.60622222-121.96977778 33.22311111-188.18844444 35.84-1.70666667-0.11377778-3.29955555-0.11377778-5.00622223-0.11377778-66.78755555 0-78.96177778 48.69688889-78.96177777 48.6968889s-12.62933333 43.57688889-0.11377778 71.56622222c8.53333333 14.22222222 23.21066667 21.27644445 43.80444445 21.27644444 16.49777778 0 36.75022222-4.55111111 60.52977777-13.65333333 48.46933333-15.36 142.67733333-79.30311111 167.936-163.61244445zM696.09244445 735.91466667c-12.62933333 13.99466667-20.25244445 20.13866667-23.552 22.41422222l-1.5928889 1.024-1.4791111 1.25155556c-26.73777778 23.32444445-57.45777778 37.20533333-81.92 37.20533333-7.62311111 0-14.67733333-1.36533333-20.93511112-4.096-12.288-6.37155555-12.74311111-13.76711111-12.97066666-16.27022223-0.45511111-7.168 3.52711111-15.01866667 9.67111111-19.11466666l1.25155555-0.79644444 1.13777778-0.91022223c6.03022222-4.77866667 23.89333333-12.97066667 52.45155556-12.97066667 25.71377778 0.11377778 52.79288889-3.18577778 77.93777778-7.73688888m85.90222222-60.75733334c-0.34133333 0-1.47911111 1.25155555-3.75466667 3.98222222-20.36622222 7.73688889-96.59733333 30.49244445-160.19911111 30.49244445-35.61244445 0-60.98488889 10.35377778-73.728 20.48-30.60622222 20.48-38.22933333 71.68 7.62311111 94.54933333 11.37777778 5.12 23.32444445 7.28177778 35.49866667 7.28177778 36.864 0 75.66222222-20.59377778 104.33422222-45.62488889 36.40888889-25.03111111 93.07022222-111.16088889 90.22577778-111.16088889zM640.34133333 127.77244445c19.79733333 51.42755555 42.21155555 84.87822222 68.49422222 101.94488888 8.87466667 5.80266667 10.58133333 10.92266667 11.03644445 15.24622222 1.13777778 10.35377778-5.23377778 23.43822222-9.67111111 29.80977778-5.68888889 1.93422222-15.92888889 4.66488889-27.19288889 4.66488889-8.76088889 0-16.15644445-1.70666667-22.07288889-5.00622222-6.94044445-3.86844445-12.288-10.46755555-16.27022222-20.02488889l-0.22755556-0.45511111-0.22755555-0.45511111c-11.264-24.46222222-13.99466667-65.76355555-7.168-107.74755556 0.79644445-6.25777778 1.93422222-12.17422222 3.29955555-17.97688888m8.30577778-90.112c-43.23555555 33.22311111-66.10488889 163.49866667-35.61244444 229.94488888 15.24622222 36.29511111 44.25955555 45.96622222 69.85955555 45.96622222 21.27644445 0 40.27733333-6.59911111 47.21777778-10.24 12.74311111-10.12622222 48.35555555-68.94933333-2.61688889-102.17244444-50.85866667-33.10933333-78.848-163.49866667-78.848-163.49866666zM556.37333333 294.68444445c12.17422222 35.04355555 30.94755555 78.39288889 59.16444445 121.74222222v0.22755555c0 0.45511111-1.024 3.18577778-5.34755556 7.28177778-4.096 3.86844445-8.53333333 6.71288889-10.80888889 7.85066667-6.82666667 1.82044445-13.312 2.73066667-19.34222222 2.73066666-9.89866667 0-17.52177778-2.50311111-22.75555556-7.28177778-8.41955555-7.96444445-11.37777778-22.64177778-12.288-33.792-1.13777778-32.19911111-0.56888889-58.82311111 6.25777778-83.74044444 1.59288889-5.12 3.29955555-10.12622222 5.12-15.01866666m13.42577778-80.78222223c-55.97866667 58.82311111-61.09866667 112.52622222-58.59555556 181.47555556 3.98222222 53.70311111 34.24711111 73.38666667 69.06311112 73.38666667 9.89866667 0 20.02488889-1.59288889 30.15111111-4.43733334 2.61688889 0 53.47555555-25.6 35.61244444-63.82933333-60.98488889-92.04622222-76.23111111-186.59555555-76.23111111-186.59555556z" fill="#f9b906" p-id="1550"></path><path d="M480.82488889 462.39288889c4.55111111 8.07822222 9.55733333 16.27022222 15.13244444 24.12088889l0.34133334 0.45511111 0.34133333 0.45511111c9.44355555 12.62933333 20.59377778 26.05511111 30.37866667 37.888 9.32977778 11.37777778 23.43822222 28.44444445 26.624 34.01955555 2.16177778 5.46133333 2.50311111 10.24 0.91022222 13.8808889-1.13777778 2.73066667-3.18577778 4.32355555-4.66488889 4.89244444l-0.22755555 0.11377778-0.22755556 0.11377778c-8.192 3.29955555-21.504 6.82666667-34.13333334 6.82666666-10.24 0-15.01866667-2.38933333-15.8151111-3.64088889l-0.5688889-1.024-0.68266666-0.91022222c-6.71288889-9.216-17.63555555-35.38488889-20.02488889-69.17688889-1.13777778-16.04266667-0.22755555-32.19911111 2.61688889-48.01422222m-0.11377778-89.99822222c-63.60177778 99.55555555-30.60622222 199.22488889-10.12622222 227.328 9.216 14.56355555 26.51022222 19.56977778 44.71466666 19.56977778 16.95288889 0 34.58844445-4.32355555 46.87644445-9.216 20.36622222-7.85066667 35.49866667-33.22311111 22.86933333-63.94311112-5.12-12.85688889-38.22933333-48.58311111-61.09866666-79.18933333-30.49244445-43.46311111-43.23555555-94.54933333-43.23555556-94.54933333zM411.19288889 609.39377778c18.432 27.19288889 39.82222222 57.57155555 59.392 81.80622222 12.17422222 20.25244445 13.53955555 33.90577778 10.69511111 40.04977778-2.73066667 5.68888889-10.69511111 7.73688889-14.22222222 8.30577777-3.29955555 0.22755555-6.48533333 0.45511111-9.55733333 0.68266667-7.28177778 0.56888889-13.53955555 1.024-19.0008889 1.024-5.91644445 0-9.89866667-0.56888889-11.264-1.70666667-0.79644445-0.68266667-5.23377778-4.89244445-9.78488888-21.73155555-0.56888889-3.18577778-1.25155555-6.37155555-2.16177778-9.89866667-2.61688889-11.37777778-6.71288889-28.55822222-6.71288889-55.97866666 0-13.312 0.79644445-27.53422222 2.61688889-42.55288889m-16.95288889-88.86044445c-35.61244445 133.00622222-12.74311111 186.59555555-10.12622222 204.45866667 11.15022222 42.66666667 28.89955555 50.40355555 54.49955555 50.40355555 9.55733333 0 20.25244445-1.13777778 32.08533334-1.82044444 38.11555555-5.12 66.10488889-40.84622222 27.87555555-102.17244444-45.85244445-56.09244445-104.33422222-150.86933333-104.33422222-150.86933334zM462.50666667 844.11733333c2.38933333 1.13777778 4.77866667 2.16177778 6.94044444 3.072-4.32355555 6.59911111-9.67111111 14.67733333-16.384 24.576 3.86844445-10.46755555 7.05422222-19.68355555 9.44355556-27.648m-25.03111112-50.06222222c0 58.70933333-89.088 219.70488889-89.088 219.70488889l43.23555556 5.12s138.01244445-191.60177778 127.54488889-191.60177778h-0.22755555c-0.45511111 0.11377778-0.91022222 0.11377778-1.47911112 0.11377778-15.92888889 0-79.98577778-33.33688889-79.98577778-33.33688889z" fill="#f9b906" p-id="1551"></path><path d="M153.25866667 297.984c8.53333333 11.264 16.83911111 23.66577778 23.552 36.52266667l0.45511111 0.91022222 0.56888889 0.91022222c5.12 8.53333333 6.71288889 14.79111111 4.66488888 18.88711111-1.59288889 3.072-4.66488889 5.57511111-7.05422222 7.28177778-2.048 0.45511111-5.91644445 1.13777778-10.58133333 1.13777778-6.03022222 0-9.44355555-1.13777778-10.58133333-1.70666667 0-0.11377778-0.11377778-0.34133333-0.11377778-0.68266666-3.75466667-22.528-3.18577778-44.37333333-0.91022222-63.26044445m-17.408-71.33866667s-27.87555555 66.44622222-15.24622222 140.62933334c4.55111111 24.23466667 26.05511111 30.49244445 44.37333333 30.49244444 12.62933333 0 23.77955555-2.95822222 26.85155555-5.00622222 7.62311111-5.00622222 43.23555555-28.10311111 15.24622222-74.06933334-25.37244445-48.58311111-71.22488889-92.04622222-71.22488888-92.04622222zM261.12 399.92888889c-3.64088889 13.76711111-7.73688889 20.48-9.89866667 23.21066666l-0.11377778 0.11377778-0.11377777 0.11377778c-7.39555555 9.89866667-17.74933333 13.42577778-24.46222223 13.42577778-0.91022222 0-1.82044445-0.11377778-2.5031111-0.22755556 1.36533333-5.23377778 7.50933333-14.90488889 23.43822222-26.624h0.22755555c4.89244445-3.52711111 9.32977778-6.82666667 13.42577778-10.01244444m40.04977778-91.47733334c-15.36 22.98311111-25.37244445 38.34311111-73.728 74.06933334-55.97866667 40.96-33.10933333 74.18311111-33.10933333 74.18311111 7.39555555 9.55733333 19.22844445 14.22222222 32.1991111 14.22222222 18.09066667 0 38.45688889-9.216 51.7688889-27.19288889 25.48622222-33.22311111 25.48622222-107.17866667 22.86933333-135.28177778zM289.33688889 502.89777778c-3.41333333 16.27022222-8.41955555 30.15111111-14.90488889 40.84622222l-0.45511111 0.68266667-0.34133334 0.68266666c-10.01244445 18.54577778-17.52177778 20.25244445-22.07288888 20.36622222-6.59911111-0.68266667-7.73688889-2.61688889-8.53333334-3.75466666-2.16177778-3.52711111-3.41333333-9.32977778-4.096-14.22222222 0.34133333-1.82044445 1.13777778-4.89244445 2.73066667-8.30577778 3.41333333-6.94044445 9.10222222-12.62933333 17.18044445-16.95288889l0.56888888-0.22755555 0.45511112-0.34133334c10.01244445-5.68888889 19.91111111-12.06044445 29.46844444-18.77333333m37.31911111-89.77066667c0 0.22755555 0.11377778 0.45511111 0.11377778 0.68266667 0-0.22755555-0.11377778-0.45511111-0.11377778-0.68266667z m0.11377778 0.68266667c1.13777778 13.53955555-36.63644445 50.97244445-84.08177778 78.62044444-38.11555555 20.48-38.11555555 56.20622222-38.11555555 56.20622223 2.50311111 17.97688889 7.62311111 48.46933333 45.73866666 51.2 15.24622222 0 35.61244445-5.23377778 53.36177778-38.34311112 30.26488889-50.51733333 25.6-128.45511111 23.09688889-147.68355555z" fill="#f9b906" p-id="1552"></path><path d="M316.416 616.10666667c-3.52711111 22.30044445-9.89866667 41.30133333-18.31822222 54.38577778-3.75466667 5.57511111-6.25777778 8.76088889-7.85066667 10.46755555-2.048-0.56888889-5.34755555-1.59288889-10.46755556-3.41333333l-1.4791111-0.56888889-1.47911112-0.34133333c-8.87466667-2.38933333-12.17422222-5.68888889-12.85688888-7.50933334v-0.45511111s0.45511111-3.29955555 1.25155555-6.144c2.16177778-7.39555555 6.71288889-14.22222222 13.42577778-20.13866667l1.82044444-1.25155555c12.06044445-8.192 24.34844445-16.384 35.95377778-25.03111111m30.49244445-85.33333334c-15.24622222 35.72622222-50.74488889 58.70933333-88.97422223 84.30933334-30.60622222 25.6-27.98933333 56.43377778-27.98933333 56.43377778s0 28.10311111 38.11555556 38.22933333c10.24 3.75466667 18.09066667 6.03022222 24.91733333 6.03022222 11.83288889 0 20.70755555-7.05422222 33.56444444-26.51022222 33.10933333-51.08622222 30.60622222-143.13244445 20.36622223-158.49244445zM330.29688889 750.36444445c-3.52711111 13.88088889-7.85066667 24.68977778-12.85688889 31.97155555-6.03022222 8.87466667-11.264 10.35377778-15.92888889 10.58133333H300.14577778c-1.59288889 0-3.41333333-0.22755555-5.57511111-2.84444444-2.16177778-2.73066667-2.95822222-5.91644445-3.18577778-7.85066667 2.61688889-3.98222222 10.46755555-12.97066667 22.98311111-20.93511111 3.75466667-2.16177778 9.32977778-6.03022222 15.92888889-10.92266666m39.59466666-89.20177778c-12.74311111 25.6-53.47555555 58.70933333-73.728 71.56622222-20.36622222 12.85688889-35.61244445 30.72-38.11555555 40.96-4.89244445 22.07288889 11.37777778 53.58933333 42.09777778 53.58933333 1.13777778 0 2.38933333 0 3.64088889-0.11377777 38.11555555-2.50311111 53.47555555-40.84622222 61.09866666-73.95555556 7.50933333-35.95377778 10.12622222-69.17688889 5.00622222-92.04622222zM77.48266667 421.888c18.31822222 8.30577778 34.816 12.51555555 49.60711111 12.74311111 8.30577778 0.56888889 10.58133333 2.61688889 10.69511111 2.61688889 0.45511111 0.79644445 0.56888889 3.29955555 0.11377778 5.12-2.27555555 3.64088889-9.32977778 12.85688889-17.06666667 12.85688889-3.41333333 0-7.85066667-1.59288889-12.85688889-4.66488889-9.78488889-5.91644445-20.36622222-16.15644445-30.49244444-28.672m-68.72177778-87.83644445c-10.24 35.84 35.61244445 117.53244445 81.46488889 145.63555556 11.37777778 6.94044445 21.61777778 9.67111111 30.60622222 9.67111111 27.53422222 0 44.37333333-25.03111111 48.128-32.65422222 7.73688889-17.97688889 5.12-53.70311111-40.73244445-56.20622222-45.73866667 0-119.46666667-66.44622222-119.46666666-66.44622223zM110.13688889 554.66666667c15.81511111 6.71288889 33.33688889 11.94666667 52.224 14.67733333-0.22755555 0.79644445-0.45511111 1.59288889-0.79644444 2.16177778l-0.45511112 0.56888889c-2.27555555 2.61688889-6.144 3.86844445-11.60533333 3.86844444-8.07822222 0-17.74933333-3.18577778-25.6-8.30577778-5.23377778-4.66488889-9.78488889-8.87466667-13.76711111-12.97066666m-68.49422222-90.33955556c2.61688889 63.82933333 17.86311111 92.16 61.09866666 130.27555556 13.53955555 9.55733333 30.60622222 15.47377778 46.64888889 15.47377778 14.22222222 0 27.648-4.66488889 37.20533333-15.47377778 12.74311111-12.74311111 20.36622222-56.09244445-17.74933333-58.82311112-76.23111111-10.12622222-127.20355555-71.45244445-127.20355555-71.45244444zM127.08977778 664.68977778c18.432 7.168 38.22933333 13.42577778 59.16444444 18.65955555-6.48533333 9.55733333-11.37777778 9.55733333-12.97066667 9.55733334-1.59288889 0-3.29955555-0.22755555-5.34755555-0.79644445l-0.34133333-0.11377777-0.34133334-0.11377778c-13.88088889-3.41333333-28.21688889-13.312-40.16355555-27.19288889m-64.96711111-75.20711111c7.62311111 79.18933333 55.97866667 125.26933333 96.71111111 135.39555555 5.12 1.36533333 9.89866667 2.048 14.44977777 2.048 19.91111111 0 33.22311111-12.51555555 41.64266667-25.03111111 10.12622222-12.74311111 17.74933333-40.84622222-17.74933333-51.2-94.32177778-22.75555555-135.05422222-61.21244445-135.05422222-61.21244444zM158.60622222 774.144c14.22222222 5.12 29.80977778 10.46755555 46.53511111 16.04266667 9.55733333 4.20977778 13.19822222 8.192 14.10844445 9.67111111-0.22755555 0.56888889-0.91022222 1.70666667-2.048 2.50311111l-1.93422223 1.47911111-1.70666666 1.70666667c-4.55111111 4.66488889-8.53333333 6.94044445-11.60533334 6.94044444-1.70666667 0-8.07822222-0.79644445-19.56977777-10.24-8.41955555-8.98844445-16.27022222-18.31822222-23.77955556-28.10311111M77.36888889 704.512c20.36622222 43.57688889 45.73866667 84.42311111 81.46488889 122.65244445 16.04266667 13.76711111 30.37866667 19.56977778 43.12177777 19.56977777 13.42577778 0 25.25866667-6.48533333 35.72622223-16.95288889 20.36622222-15.24622222 27.87555555-51.2-20.36622223-71.56622222-86.58488889-28.21688889-139.94666667-53.70311111-139.94666666-53.70311111zM286.15111111 837.29066667c-0.11377778 0-0.11377778 0-0.22755556 0.11377778-5.12 7.73688889-60.98488889 10.12622222-60.98488888 10.12622222 27.76177778 35.49866667 48.01422222 158.60622222 48.35555555 158.60622222l25.37244445-12.85688889s-7.39555555-155.98933333-12.51555556-155.98933333z" fill="#f9b906" p-id="1553"></path></svg>