<?xml version="1.0" standalone="no"?><!DOCTYPE svg PUBLIC "-//W3C//DTD SVG 1.1//EN" "http://www.w3.org/Graphics/SVG/1.1/DTD/svg11.dtd"><svg t="1573798737422" class="icon" viewBox="0 0 1024 1024" version="1.1" xmlns="http://www.w3.org/2000/svg" p-id="1138" xmlns:xlink="http://www.w3.org/1999/xlink" width="200" height="200"><defs><style type="text/css"></style></defs><path d="M616.08087703 188.66132673a262.08852014 262.08852014 0 0 1-345.53075757 22.19208431A276.29145414 276.29145414 0 0 1 297.40254155 179.11873051a207.05214949 207.05214949 0 0 1 17.97558788-16.42214317A259.6473903 259.6473903 0 0 1 356.65540741 134.73456067c7.32338828-4.21649644 15.09061791-7.76722963 22.19208431-11.31796282a266.30501535 266.30501535 0 0 1 52.5952408-16.2002225 273.85032431 273.85032431 0 0 1 30.18123583-3.99457454A260.97891555 260.97891555 0 0 1 642.71137845 156.92664498a276.29145414 276.29145414 0 0 1-26.63050142 31.73468175z" fill="#3A768C" p-id="1139"></path><path d="M473.82961388 132.07151017a11.76180539 11.76180539 0 0 1-17.0879052 0l-25.07705549-25.07705549a273.85032431 273.85032431 0 0 1 30.18123583-3.99457454l11.98372486 11.98372484a11.76180539 11.76180539 0 0 1 0 17.08790519zM405.25607246 166.46924242a12.20564673 12.20564673 0 0 1-17.08790519 0L356.65540741 134.73456067c7.32338828-4.21649644 15.09061791-7.76722963 22.19208431-11.31796282l26.18666007 26.18666006a11.76180539 11.76180539 0 0 1 0.22192067 16.86598451zM315.37812943 162.25274599L353.77043623 201.31081482a11.98372606 11.98372606 0 0 1 0 17.30982585 12.20564673 12.20564673 0 0 1-17.08790519 0L297.40254155 179.11873051z" fill="#4691A5" p-id="1140"></path><path d="M829.12488957 401.03957724a262.08852014 262.08852014 0 0 0-22.19208431 345.53075758 258.31586506 258.31586506 0 0 0 31.51275986-26.85242209 207.05214949 207.05214949 0 0 0 16.42214316-17.97558909 245.4444563 245.4444563 0 0 0 27.740106-40.83343543 218.59203421 218.59203421 0 0 0 11.31796282-22.19208431 261.86659946 261.86659946 0 0 0 17.53174654-52.81716148 273.85032431 273.85032431 0 0 0 3.10689185-29.51547259 259.86931098 259.86931098 0 0 0-53.92676606-180.86549064A277.62297939 277.62297939 0 0 0 829.12488957 401.03957724z" fill="#3A768C" p-id="1141"></path><path d="M885.49278425 543.73468054a11.76180539 11.76180539 0 0 0 0 17.08790518L911.45752364 585.89964242a273.85032431 273.85032431 0 0 0 3.10689185-29.51547259l-11.98372606-11.98372606a11.76180539 11.76180539 0 0 0-17.08790518-0.66576323zM851.09505319 612.30822317a12.20564673 12.20564673 0 0 0 0 17.08790518l31.95660244 31.95660122a218.59203421 218.59203421 0 0 0 11.31796282-22.19208431l-25.9647394-26.18666008a12.42756741 12.42756741 0 0 0-17.30982586-0.66576201zM838.88940646 720.16175408L800.49710087 680.88176458a12.20564673 12.20564673 0 0 1 0-17.08790519 11.98372606 11.98372606 0 0 1 17.30982586 0l38.39230681 38.39230559z" fill="#458FA3" p-id="1142"></path><path d="M782.52151179 629.39612835a678.41202828 678.41202828 0 0 1-585.20527274 190.851927 47.2691398 47.2691398 0 0 1 0-5.54802047A1056.34322963 1056.34322963 0 0 0 688.20515165 534.19208431 1060.1158835 1060.1158835 0 0 0 968.0473402 43.74701428a44.38416983 44.38416983 0 0 1 5.3260998 0 677.74626506 677.74626506 0 0 1-190.85192821 585.64911407z" fill="#3A768C" p-id="1143"></path><path d="M782.52151179 629.39612835a678.41202828 678.41202828 0 0 1-585.20527274 190.851927 47.2691398 47.2691398 0 0 1 0-5.54802047A1056.34322963 1056.34322963 0 0 0 688.20515165 534.19208431 1060.1158835 1060.1158835 0 0 0 968.0473402 43.74701428a44.38416983 44.38416983 0 0 1 5.3260998 0 677.74626506 677.74626506 0 0 1-190.85192821 585.64911407z" fill="#3A768C" p-id="1144"></path><path d="M265.00209778 1027.07828539A667.75982748 667.75982748 0 0 1 105.21908807 911.45752364c-3.10689185-2.66305051-5.76994236-5.54802169-8.65491232-8.43299165A678.41202828 678.41202828 0 0 1-20.61003193 746.57033482a668.42558949 668.42558949 0 0 0 217.92627098 73.67772053 679.74355354 679.74355354 0 0 0 67.68585873 206.83023004z" fill="#3A768C" p-id="1145"></path><path d="M782.52151179 629.39612835a678.41202828 678.41202828 0 0 1-585.20527274 190.851927 47.2691398 47.2691398 0 0 1 0-5.54802047A1056.34322963 1056.34322963 0 0 0 688.20515165 534.19208431 1060.1158835 1060.1158835 0 0 0 968.0473402 43.74701428a44.38416983 44.38416983 0 0 1 5.3260998 0 677.74626506 677.74626506 0 0 1-190.85192821 585.64911407z" fill="#3A768C" p-id="1146"></path><path d="M-20.61003193 746.57033482a668.42558949 668.42558949 0 0 0 217.92627098 73.67772053L105.21908807 911.45752364c-3.10689185-2.66305051-5.76994236-5.54802169-8.65491232-8.43299165A678.41202828 678.41202828 0 0 1-20.61003193 746.57033482zM688.20515165 534.19208431a1056.34322963 1056.34322963 0 0 1-491.55467462 279.62026667c-1.99728727-12.64948807-3.55073319-25.96473939-4.43841709-38.83614815a673.52976983 673.52976983 0 0 1 13.53717199-208.60559542 607.84119839 607.84119839 0 0 1 22.1920843-80.11342613 704.15484579 704.15484579 0 0 1 30.4031565-72.34619529 712.58783866 712.58783866 0 0 1 37.28270221-66.57625414A690.39575313 690.39575313 0 0 1 339.34558155 290.07915327a676.63666169 676.63666169 0 0 1 162.88990155-146.02391704 679.52163165 679.52163165 0 0 1 466.03377777-99.64245993A1060.78164673 1060.78164673 0 0 1 688.20515165 534.19208431z" fill="#77B5C7" p-id="1147"></path><path d="M791.17642532 226.3878703m-72.79003784 0a72.79003785 72.79003785 0 1 0 145.58007569 0 72.79003785 72.79003785 0 1 0-145.58007569 0Z" fill="#142A30" p-id="1148"></path><path d="M808.26433051 209.29996512m-48.60066626 0a48.60066506 48.60066506 0 1 0 97.2013313 0 48.60066506 48.60066506 0 1 0-97.2013313 0Z" fill="#2B5A66" p-id="1149"></path><path d="M766.54443088 233.86538348a36.39501831 46.82529845 45 1 0 66.22097135-66.22097257 36.39501831 46.82529845 45 1 0-66.22097135 66.22097257Z" fill="#FFFFFF" p-id="1150"></path><path d="M576.80088754 269.44051488a36.39501831 36.39501831 0 0 1-51.48563622 0l-82.99839731-83.22031798a658.21723124 658.21723124 0 0 1 59.91862909-43.05264336l74.56540444 74.78732512a36.39501831 36.39501831 0 0 1 0 51.48563622zM439.6538035 338.0140563a36.39501831 36.39501831 0 0 1-51.48563623 0L339.34558155 290.07915327a659.5487565 659.5487565 0 0 1 48.82258572-54.14868674l51.48563623 51.48563623a36.39501831 36.39501831 0 0 1 0 50.59795354zM370.85834141 475.16113913a36.17309764 36.17309764 0 0 1-51.26371555 0l-60.58439112-60.36247045a712.58783866 712.58783866 0 0 1 37.28270223-66.57625293L370.85834141 423.23166155a35.95117697 35.95117697 0 0 1 0 51.92947758zM302.2848 612.30822317a36.39501831 36.39501831 0 0 1-51.48563623 0l-44.38416983-44.38416984a607.84119839 607.84119839 0 0 1 22.19208552-80.11342612l73.67772054 73.67772175a36.39501831 36.39501831 0 0 1 0 50.81987421z" fill="#89D4E5" p-id="1151"></path><path d="M831.34409872 575.24744161l-66.57625414-66.57625413a36.39501831 36.39501831 0 1 1 51.48563623-51.26371555l57.47749925 57.47749925a687.95462451 687.95462451 0 0 1-42.38688134 60.36247043zM782.52151179 629.39612835a621.37837037 621.37837037 0 0 1-54.14868673 48.82258573l-31.51275988-31.51275987a36.39501831 36.39501831 0 1 1 51.48563623-51.48563623zM668.45419717 721.27135866a712.58783866 712.58783866 0 0 1-66.57625414 37.28270221l-44.38416984-44.38416983a36.39501831 36.39501831 0 0 1 51.48563624-51.48563622zM530.41943043 788.95721616a599.18628606 599.18628606 0 0 1-80.11342612 22.19208553L423.23166155 783.85303703a36.39501831 36.39501831 0 0 1 51.48563623-51.48563622z" fill="#458FA3" p-id="1152"></path></svg>