<?xml version="1.0" standalone="no"?><!DOCTYPE svg PUBLIC "-//W3C//DTD SVG 1.1//EN" "http://www.w3.org/Graphics/SVG/1.1/DTD/svg11.dtd"><svg t="1573798756548" class="icon" viewBox="0 0 1024 1024" version="1.1" xmlns="http://www.w3.org/2000/svg" p-id="1138" xmlns:xlink="http://www.w3.org/1999/xlink" width="200" height="200"><defs><style type="text/css"></style></defs><path d="M144.92335893 331.2757248l-57.9484992-18.13496107c-42.73180693-20.21944-54.19643733-57.9484992-54.19643733-108.60132373h79.41862613c31.26717547 1.87603093 60.65832107 14.59134827 83.37913494 36.26992427l36.2699232 36.2699232-36.2699232 54.19643733H144.92335893z" fill="#E68783" p-id="1139"></path><path d="M1007.2720608 561.1936896c13.13221333-42.10646293 19.802544-85.8805088 20.21944-129.86300267v-9.79704853c0-129.86300267-105.26615787-235.12916053-235.12915947-235.12916053H373.79908373c-97.9704832 0-186.97770987 56.28091627-228.8757248 144.87124693l-63.36814293 133.40661653c-18.96875307 39.81353707-58.99073813 65.4526208-103.18167893 65.4526208v90.46636054L209.95908373 653.74452907c12.5068704 1.87603093 21.67857493 12.5068704 21.67857494 25.0137408v158.83725226h72.33139946l29.5995936-148.4148608c2.70982187-13.75755733 16.2589312-22.51236693 29.80804054-19.802544 1.87603093 0.416896 3.5436128 0.83379093 5.21119573 1.66758294 59.40763307 26.05597973 123.60956693 39.60508907 188.4368448 40.021984 180.93272213 0 253.26412267-72.33139947 253.26412267-72.33139947l5.83653866-5.83653973c3.9605088 2.70982187 8.1294656 5.41964373 12.7153184 7.92101866 27.72356267 15.21669227 53.1541984 33.97699733 75.87501227 56.07246827l14.17445333 13.96600427-56.9062592 99.63806613c-5.00274773 8.7548096-1.87603093 19.802544 6.87877867 24.5968448 2.70982187 1.45913493 5.62809173 2.29292587 8.75480853 2.29292693h59.40763414l90.46636053-126.52783786c-24.1799488-37.93750613-33.3516544-83.79603093-25.63908373-128.19541974 1.45913493-7.08722667 3.33516587-14.38290027 5.41964373-21.47012693z" fill="#F5A9A2" p-id="1140"></path><path d="M1007.2720608 561.1936896c13.13221333-42.10646293 19.802544-85.8805088 20.21944-129.86300267v-9.79704853c0-77.7510432-38.56285013-150.70778667-102.76478293-194.48183147C800.07491093 514.29292587 431.33068693 618.3083968 214.54493653 655.203664c10.00549653 3.33516587 16.8842752 12.9237664 17.09272214 23.55460587v158.83725226h72.33139946l29.5995936-148.4148608c2.70982187-13.75755733 16.2589312-22.51236693 29.80804054-19.802544 1.87603093 0.416896 3.5436128 0.83379093 5.21119573 1.66758294 59.40763307 26.05597973 123.60956693 39.60508907 188.4368448 40.021984 180.93272213 0 253.26412267-72.33139947 253.26412267-72.33139947l5.83653866-5.83653973c3.9605088 2.70982187 8.1294656 5.41964373 12.7153184 7.92101866 27.72356267 15.21669227 53.1541984 33.97699733 75.87501227 56.07246827l14.17445333 13.96600427-56.9062592 99.63806613c-5.00274773 8.7548096-1.87603093 19.802544 6.87877867 24.5968448 2.70982187 1.45913493 5.62809173 2.29292587 8.75480853 2.29292693h59.40763414l90.46636053-126.52783786c-24.1799488-37.93750613-33.3516544-83.79603093-25.63908373-128.19541974 1.45913493-7.08722667 3.33516587-14.38290027 5.41964373-21.47012693z" fill="#F0A09C" p-id="1141"></path><path d="M159.3062592 475.7300768h36.26992427V512H159.3062592z" fill="#75462E" p-id="1142"></path><path d="M322.72936427 409.652112c-33.1432064 0.83379093-65.4526208-9.38015253-92.34239254-28.7658016-3.9605088-3.12671787-7.7125696-6.25343467-11.2561824-9.79704853-7.29567467-6.87877867-7.50412267-18.34341013-0.625344-25.63908374l0.208448-0.208448 56.6978112-57.5316032c29.59959253-30.01648853 69.8300256-47.31765867 111.93648854-48.1514496 10.00549653-0.208448 18.13496213 7.9210176 18.34341013 17.92651307s-7.9210176 18.13496213-17.92651413 18.34341013c-32.7263104 0.625344-63.78503787 13.96600533-86.71429974 37.3121632l-42.73180693 43.14870187c49.6105856 26.88977067 110.6858016 20.844784 154.04295147-15.42514027 7.29567467-6.87877867 18.76030507-6.67033067 25.63908373 0.625344s6.67033067 18.76030507-0.62534293 25.63908374c-31.47562347 28.1404576-72.33139947 43.35714987-114.6463104 42.52335893zM991.4300256 475.7300768c-30.01648853 0-54.19643733-24.3883968-54.19643733-54.1964384v-36.2699232c0-10.00549653-8.1294656-18.13496213-18.13496214-18.13496213s-18.13496213 8.1294656-18.13496213 18.13496213v18.13496213c0 10.00549653-8.1294656 18.13496213-18.13496213 18.13496107s-18.13496213-8.1294656-18.13496107-18.13496107v-18.13496213c0-30.01648853 24.3883968-54.19643733 54.19643733-54.19643733s54.19643733 24.3883968 54.19643734 54.19643733v36.2699232c0 10.00549653 8.1294656 18.13496213 18.13496213 18.13496213s18.13496213-8.1294656 18.13496213-18.13496213 8.1294656-18.13496213 18.13496107-18.13496107 18.13496213 8.1294656 18.13496213 18.13496107c0 30.01648853-24.3883968 54.19643733-54.19643733 54.1964384zM904.9241728 715.02819307c-4.79429973 0-9.38015253-1.87603093-12.71531733-5.21119574-21.67857493-20.844784-45.85852373-38.77129813-72.33139947-53.1541984-47.52610667-25.0137408-78.3763872-72.95674347-81.92-126.5278368 0-10.00549653 8.1294656-18.13496213 18.13496107-18.13496213s18.13496213 8.1294656 18.13496213 18.13496213c3.33516587 40.43888 27.51511467 76.50035627 63.57658987 95.05221334 29.1826976 16.0504832 56.07246827 35.85302827 79.83552213 58.99073813 7.08722667 7.08722667 7.08722667 18.55185707 0 25.63908373-3.33516587 3.33516587-7.9210176 5.21119573-12.7153184 5.21119574z" fill="#E68783" p-id="1143"></path></svg>